<?xml version="1.0" encoding="UTF-8"?>
<svg width="20px" height="20px" viewBox="0 0 20 20" version="1.1" xmlns="http://www.w3.org/2000/svg" xmlns:xlink="http://www.w3.org/1999/xlink">
    <!-- Generator: Sketch 50.2 (55047) - http://www.bohemiancoding.com/sketch -->
    <title>icon-fav-leagues</title>
    <desc>Created with Sketch.</desc>
    <defs></defs>
    <g id="Welcome" stroke="none" stroke-width="1" fill="none" fill-rule="evenodd">
        <g id="01_Anasayfa" transform="translate(-350.000000, -745.000000)" fill="#FFFFFF" fill-rule="nonzero">
            <g id="Content" transform="translate(330.000000, 540.000000)">
                <g id="icon-fav-leagues" transform="translate(20.000000, 205.000000)">
                    <polygon id="Shape" points="8.5 6.8292199 8.14590977 9 10 7.97507743 11.8540902 9 11.5 6.8292199 13 5.29181185 10.9270677 4.97507743 10 3 9.07293233 4.97507743 7 5.29181185"></polygon>
                    <path d="M16.3637891,1.5234375 C16.3662891,1.27199219 16.3671875,1.02425781 16.3671875,0.78125 L16.3671875,0 L3.5546875,0 L3.5546875,0.78125 C3.5546875,1.02425781 3.55558594,1.27199219 3.55808594,1.5234375 L0,1.5234375 L0,2.3046875 C0,4.30410156 0.525546875,5.99339844 1.60667969,7.46921875 C2.52457031,8.72214844 3.67898438,9.6015625 4.6975,10.3774219 C5.33132812,10.8602344 5.89628906,11.29125 6.29585938,11.7269531 C7.08019531,12.7653125 8.04800781,13.6669141 9.1796875,14.4135938 L9.1796875,15.703125 L8.7890625,15.703125 C6.85054688,15.703125 5.2734375,17.2802344 5.2734375,19.21875 L5.2734375,20 L14.6484375,20 L14.6484375,19.21875 C14.6484375,17.2802344 13.0713281,15.703125 11.1328125,15.703125 L10.7421875,15.703125 L10.7421875,14.4135938 C11.8718359,13.6682422 12.8382812,12.7685156 13.621875,11.7325 C14.0254297,11.2934375 14.6018359,10.8588281 15.2488281,10.3716406 C16.2782812,9.59648437 17.4450781,8.71789062 18.3733203,7.46640625 C19.4679297,5.99070312 20,4.30230469 20,2.3046875 L20,1.5234375 L16.3637891,1.5234375 Z M1.59609375,3.0859375 L3.60148438,3.0859375 C3.67707031,4.61375 3.87046875,6.23394531 4.35605469,7.83695313 C4.39460938,7.96421875 4.43527344,8.08992188 4.47699219,8.21484375 C3.08527344,7.04511719 1.81613281,5.57429688 1.59609375,3.0859375 Z M11.1328125,17.265625 C11.9321875,17.265625 12.6208984,17.7482422 12.9228516,18.4375 L6.99902344,18.4375 C7.30097656,17.7482422 7.9896875,17.265625 8.7890625,17.265625 L11.1328125,17.265625 Z M12.4581641,10.6908984 C12.3085156,10.8545313 12.1711719,11.0232031 12.0505469,11.1994922 L12.05375,11.2016797 C11.4817187,11.8759375 10.7923828,12.4998047 9.9609375,13.0570703 C9.12949219,12.4998047 8.44015625,11.8759766 7.868125,11.2016406 L7.87132812,11.1994531 C7.74902344,11.0207031 7.61,10.8497656 7.45855469,10.6839453 C5.50519531,8.03011719 5.16304687,4.70253906 5.12195312,1.5625 L14.7999219,1.5625 C14.7587891,4.7053125 14.4160156,8.03589844 12.4581641,10.6908984 Z M15.4327344,8.25101562 C15.4788281,8.11429687 15.5235156,7.97648437 15.5657812,7.83695312 C16.0514062,6.23394531 16.2448047,4.61375 16.3203516,3.0859375 L18.4032812,3.0859375 C18.1771094,5.5996875 16.8621094,7.07445312 15.4327344,8.25101562 Z" id="Shape"></path>
                </g>
            </g>
        </g>
    </g>
</svg>