<?xml version="1.0" encoding="utf-8"?>
<!-- Generator: Adobe Illustrator 23.0.2, SVG Export Plug-In . SVG Version: 6.00 Build 0)  -->
<svg version="1.1" id="Ebene_1" xmlns="http://www.w3.org/2000/svg" xmlns:xlink="http://www.w3.org/1999/xlink" x="0px" y="0px"
	 viewBox="0 0 284.7 63.5" style="enable-background:new 0 0 284.7 63.5;" xml:space="preserve">
<style type="text/css">
	.st0{fill:#FFFFFF;}
</style>
<path class="st0" d="M113.2,28.9v15.9c0,2.4,0.6,4.1,1.9,5.2c1.2,1.1,2.9,1.7,4.8,1.7c1.2,0,3.5-0.2,5.1-0.6l-2.5,9.9
	c-2,0.8-2.9,1.2-5.8,1.2c-5.3,0-9.4-1.5-12.2-4.5c-2.8-3-4.2-7.2-4.2-12.7V28.9h-9.8V17.6h9.8V3.5l12.8-2.2v16.4h12.6v11.2H113.2z"
	/>
<path class="st0" d="M23.5,28.9v15.9c0,2.4,0.6,4.1,1.9,5.2c1.2,1.1,2.9,1.7,4.8,1.7c1.2,0,3.5-0.2,5.1-0.6L32.8,61
	c-2,0.8-2.9,1.2-5.8,1.2c-5.3,0-9.4-1.5-12.2-4.5c-2.8-3-4.2-7.2-4.2-12.7V28.9H0.9V17.6h9.8V3.5l12.8-2.2v16.4h12.6v11.2H23.5z"/>
<path class="st0" d="M46.3,21.6c4.6-4.6,10.6-7.1,16.8-7.1c6.6,0,12.3,2.3,16.9,6.6c4.8,4.6,7.5,10.9,7.5,17.1
	c0,6.9-2.3,12.6-6.9,17.2c-4.7,4.7-10.4,7.1-17.3,7.1c-7,0-12.6-2.4-17.2-7.3c-4.4-4.6-6.7-10.4-6.7-16.8
	C39.3,32,41.8,26.1,46.3,21.6z M63.4,49.8c5.9,0,10.8-5,10.8-11.2c0-6.3-4.8-11.3-10.8-11.3c-5.9,0-10.8,5-10.8,11.3
	C52.6,44.7,57.5,49.8,63.4,49.8z"/>
<path class="st0" d="M136.6,21.6c4.6-4.6,10.6-7.1,16.8-7.1c6.6,0,12.3,2.3,16.9,6.6c4.8,4.6,7.5,10.9,7.5,17.1
	c0,6.9-2.3,12.6-6.9,17.2c-4.7,4.7-10.4,7.1-17.3,7.1c-7,0-12.6-2.4-17.2-7.3c-4.4-4.6-6.7-10.4-6.7-16.8
	C129.6,32,132,26.1,136.6,21.6z M153.6,49.8c5.9,0,10.8-5,10.8-11.2c0-6.3-4.8-11.3-10.8-11.3c-5.9,0-10.8,5-10.8,11.3
	C142.8,44.7,147.8,49.8,153.6,49.8z"/>
<path class="st0" d="M242.4,21.6c4.6-4.6,10.6-7.1,16.8-7.1c6.6,0,12.3,2.3,16.9,6.6c4.8,4.6,7.5,10.9,7.5,17.1
	c0,6.9-2.3,12.6-6.9,17.2c-4.7,4.7-10.4,7.1-17.3,7.1c-7,0-12.6-2.4-17.2-7.3c-4.4-4.6-6.7-10.4-6.7-16.8
	C235.5,32,237.9,26.1,242.4,21.6z M259.5,49.8c5.9,0,10.8-5,10.8-11.2c0-6.3-4.8-11.3-10.8-11.3c-5.9,0-10.8,5-10.8,11.3
	C248.7,44.7,253.7,49.8,259.5,49.8z"/>
<path class="st0" d="M208.9,15.2c-4.8,0-8.6,1.6-12.3,5c-0.1-0.8-0.1-1.5-0.1-2.3l-0.6-15.9l-12.3,2.2v15.9v34.4l12.9,2.2v0.1
	c3,3.8,7.1,5,12.3,5c5.6,0,10.4-2.1,14.6-6.3c4.6-4.6,7-10.4,7-17C230.4,25.3,221.2,15.2,208.9,15.2z M207.7,49.8
	c-0.1,0-0.3,0-0.4,0c-0.3,0-0.6,0-1,0c-5.4,0-10.3-4.8-10.3-11.4c0-6.4,4.7-11.2,10.6-11.2c0.4,0,0.8,0,1.2,0.1
	c5.9,0.1,10.6,5.1,10.6,11.3C218.4,44.8,213.6,49.8,207.7,49.8z"/>
</svg>
