
<?xml version="1.0" standalone="no"?>
<!DOCTYPE svg PUBLIC "-//W3C//DTD SVG 1.1//EN" "http://www.w3.org/Graphics/SVG/1.1/DTD/svg11.dtd" >
<svg xmlns="http://www.w3.org/2000/svg">
<metadata>Generated by IcoMoon</metadata>
<defs>
<font id="LMT" horiz-adv-x="1024">
<font-face units-per-em="1024" ascent="960" descent="-64" />
<missing-glyph horiz-adv-x="1024" />
<glyph unicode="&#x20;" horiz-adv-x="0" d="" />
<glyph unicode="&#xe603;" glyph-name="AWAY_trans" d="M513.918-28.4c49.14 53.634 548.471 173.262 438.799 889.022-116.116 45.598-276.697 65.878-439.011 64.611-0.572-0.004-2.84-0.004-3.412 0-162.314 1.267-322.895-19.013-439.011-64.611-109.672-715.76 389.659-835.387 438.799-889.022 0.533-1.184 3.302-1.184 3.836 0zM513.705 37.952c-0.459-1.019-2.842-1.019-3.301 0-42.29 46.158-460.367 161.624-377.009 771.082 100.341 33.991 237.503 50.707 377.191 49.616 0.493-0.004 2.444-0.004 2.937 0 139.688 1.091 279.318-15.954 377.189-49.616 85.855-605.19-334.716-724.924-377.007-771.082zM297.196 559.514l-49.775-7.455-3.873-37.425-38.604-5.782 28.095 184.227 33.39 5.001 85.233-167.254-38.976-5.837-15.491 34.524zM249.896 582.097l33.763 5.057-26.998 60.125-6.764-65.182zM478.903 602.761l11.517 112.435 36.517 1.688-23.272-179.142-37.019-1.711-26.772 103.695-15.643-105.655-37.145-1.717-41.857 176.132 36.768 1.699 22.986-110.718 15.664 112.505 30.996 1.432 27.259-110.643zM641.333 566.218l-50.246 3.779-12.551-35.555-38.969 2.931 70.584 173.023 33.706-2.535 43.817-181.626-39.345 2.959-6.996 37.025zM600.891 599.313l34.082-2.563-12.203 64.485-21.879-61.922zM756.581 614.974l40.37 74.425 39.684-6.399-67.111-104.021-10.666-63.621-36.956 5.959 10.666 63.621-29.743 119.638 39.684-6.399 14.072-83.203z" />
<glyph unicode="&#xe604;" glyph-name="HOME_trans" d="M513.918-28.4c49.14 53.634 548.471 173.262 438.799 889.022-116.116 45.598-276.697 65.878-439.011 64.611-0.572-0.004-2.84-0.004-3.412 0-162.314 1.267-322.895-19.013-439.011-64.611-109.672-715.76 389.659-835.387 438.799-889.022 0.533-1.184 3.302-1.184 3.836 0zM513.705 37.952c-0.459-1.019-2.842-1.019-3.301 0-42.29 46.158-460.367 161.624-377.009 771.082 100.341 33.991 237.503 50.707 377.191 49.616 0.493-0.004 2.444-0.004 2.937 0 139.688 1.091 279.318-15.954 377.189-49.616 85.855-605.19-334.716-724.924-377.007-771.082zM90.697 568.382c0-44.644 17.492-129.060 17.492-129.060s163.261 51.137 396.491 51.137c233.23 0 396.491-51.137 396.491-51.137s14.577 84.417 14.577 129.060c0 44.644-14.577 138.801-14.577 138.801s-67.054 66.517-396.491 61.647c-329.437-4.87-396.491-61.647-396.491-61.647s-17.492-94.157-17.492-138.801zM334.343 529.379l-36.187-5.879-12.763 75.991-53.601-8.708 12.763-75.991-36.31-5.899-29.827 177.597 36.31 5.899 12.066-71.844 53.601 8.708-12.066 71.844 36.187 5.879 29.827-177.597zM489.782 611.607c1.266-24.116-3.523-43.128-14.366-57.037s-26.517-21.375-47.021-22.398c-20.421-1.019-36.812 4.786-49.174 17.414s-19.251 30.831-20.667 54.609l-1.614 30.741c-1.296 24.692 3.484 44.26 14.341 58.707s26.58 22.183 47.167 23.21c20.254 1.010 36.573-5.004 48.957-18.044s19.305-31.86 20.764-56.461l1.614-30.741zM451.322 639.887c-0.851 16.214-3.818 28.155-8.901 35.824s-12.541 11.257-22.376 10.767c-9.752-0.486-16.762-4.653-21.029-12.499s-6.077-19.551-5.427-35.115l1.679-31.976c0.825-15.72 3.809-27.186 8.951-34.398s12.672-10.57 22.591-10.075c9.585 0.478 16.52 4.476 20.805 11.992s6.067 18.932 5.347 34.245l-1.64 31.235zM576.573 714.543l27.534-131.793 41.104 128.177 48.009-2.529-9.468-179.728-36.882 1.943 2.562 48.635 7.323 74.75-42.891-121.647-25.004 1.317-29.872 125.479-0.572-75.106-2.562-48.635-36.757 1.936 9.468 179.728 48.009-2.529zM818.762 587.259l-56.595 9.137-7.757-47.089 66.975-10.813-4.903-29.766-103.305 16.679 29.26 177.62 103.058-16.639-4.924-29.888-66.728 10.773-6.913-41.965 56.595-9.137-4.763-28.912z" />
<glyph unicode="&#xf000;" glyph-name="uniF000" d="M512-56.209c-278.002 0-504.209 226.204-504.209 504.209s226.204 504.209 504.209 504.209 504.209-226.204 504.209-504.209-226.204-504.209-504.209-504.209zM512 845.732c-219.284 0-397.732-178.453-397.732-397.732s178.453-397.732 397.732-397.732 397.732 178.453 397.732 397.732-178.453 397.732-397.732 397.732zM658.562 394.765h-199.798v322.138c0 29.44 23.85 53.235 53.235 53.235s53.235-23.796 53.235-53.235v-215.661h93.324c29.388 0 53.235-23.796 53.235-53.235s-23.796-53.235-53.235-53.235z" />
<glyph unicode="&#xf001;" glyph-name="uniF001" d="M512 958.567c-281.982 0-510.567-228.586-510.567-510.567s228.586-510.567 510.567-510.567 510.567 228.586 510.567 510.567-228.586 510.567-510.567 510.567zM469.038 131.56l-268.971 242.949 110.978 122.891 141.893-128.109 291.323 345.423 126.564-106.789-401.783-476.364z" />
<glyph unicode="&#xf002;" glyph-name="uniF002" horiz-adv-x="1008" d="M502.622 944.388c-273.17 0-494.612-221.443-494.612-494.612s221.443-494.612 494.612-494.612c273.17 0 494.612 221.443 494.612 494.612s-221.443 494.612-494.612 494.612zM789.645 276.253l-113.437-113.437-173.587 173.525-173.525-173.525-113.498 113.437 173.525 173.525-173.525 173.525 113.437 113.437 173.587-173.525 173.525 173.525 113.437-113.437-173.525-173.525 173.587-173.525z" />
<glyph unicode="&#xf005;" glyph-name="uniF005" d="M994.007 560.050c39.99 40.567 39.99 106.341 0 146.911s-104.826 40.57-144.816 0l-337.191-335.583-337.191 335.586c-39.99 40.57-104.829 40.57-144.819 0-19.994-20.287-29.99-46.874-29.99-73.459 0-26.584 9.997-53.172 29.99-73.455l409.6-415.538c39.99-40.567 104.829-40.567 144.816 0l409.6 415.538z" />
<glyph unicode="&#xf006;" glyph-name="uniF006" d="M29.993 380.472c-39.991-40.567-39.991-106.341 0-146.911s104.826-40.57 144.816 0l337.191 335.583 337.191-335.586c39.99-40.57 104.829-40.57 144.819 0 19.993 20.287 29.99 46.874 29.99 73.459 0 26.584-9.997 53.172-29.99 73.455l-409.6 415.538c-39.99 40.567-104.829 40.567-144.816 0l-409.6-415.538z" />
<glyph unicode="&#xf007;" glyph-name="uniF007" horiz-adv-x="1097" d="M0 605.538h318.525v-669.538h-318.525v669.538zM389.309 960h318.525v-1024h-318.525v1024zM778.618 487.385h318.525v-551.385h-318.525v551.385z" />
<glyph unicode="&#xf008;" glyph-name="uniF008" d="M80.094 352.902c35.534-58.844 56.795-109.496 75.808-154.779 18.221-43.329 35.428-84.258 61.535-124.111 23.33-35.592 52.055-68.691 82.923-96.070-105.071 45.77-191.604 126.645-243.195 229.107l-0.201 0.786c-8.72 34.619-0.084 87.857 23.13 145.067zM272.933 889.685c-39.609-35.437-75.322-79.572-88.602-130.286-11.317-43.246-4.529-85.788 20.174-126.583-21.726-21.98-41.942-45.056-60.279-68.784-40.094 62.102-57.006 117.688-50.324 165.412 45.425 67.139 107.372 122.29 179.031 160.24zM145.63 477.499c46.006-59.878 109.737-123.614 189.693-189.668 255.039-210.592 437.607-226.966 487.487-226.966 5.764 0 11.38 0.176 16.827 0.538-90.967-76.221-205.391-117.822-325.822-117.822-21.599 0-43.388 1.376-64.755 4.086-61.546 12.422-140.626 76.21-192.459 155.265-24.724 37.743-40.812 75.983-59.603 120.698-22.127 52.638-47.136 112.144-92.783 183.368 11.718 23.221 25.611 46.866 41.414 70.501zM733.828 828.566c64.734 0 118.932-15.588 156.767-45.087 79.46-85.675 124.464-195.543 127.546-310.686-125.403 62.143-398.864 76.541-454.529 78.858-13.745 0.59-27.067 1.055-39.957 1.5l-3.558 0.124c-115.343 3.962-192.881 6.63-246.467 71.783 114.973 107.313 264.509 181.682 401.82 199.577 20.016 2.607 39.662 3.931 58.379 3.931zM236.238 590.005c64.924-76.262 158.467-79.489 275.699-83.534 14.135-0.476 28.809-0.983 43.99-1.624 28.387-1.2 128.992-6.268 232.057-21.080 109.505-15.763 189.44-37.909 231.92-64.202-6.176-107.365-49.025-211.047-121.043-292.636-13.259-11.336-37.075-17.315-68.914-17.315-32.314 0-73.073 6.372-111.817 17.48-77.074 22.104-200.725 74.69-352.119 199.701-81.983 67.729-146.041 132.396-190.517 192.326 18.158 24.338 38.532 48.118 60.743 70.884zM0.802 445.093c11.243-6.072 25.009-21.514 42.902-47.931-14.811-32.251-23.584-60.075-28.661-83.068-9.765 36.192-14.695 73.469-14.695 111.306 0 6.516 0.148 13.095 0.454 19.694zM522.652 957.238c100.869 0 199.025-30.089 281.653-85.582-22.539 4.272-46.618 6.434-72.049 6.434-20.533 0-42.016-1.438-63.836-4.282-91.315-11.895-191.9-48.418-283.205-102.855-50.862-30.317-98.156-65.546-140.763-104.831-16.131 30.275-20.153 61.43-11.961 92.77 14.537 55.637 64.607 103.962 104.036 134.713 34.51 26.903 66.877 45.284 80.453 52.565 34.647 7.344 70.192 11.067 105.673 11.067zM47.685 658.282c7.875-43.060 28.767-89.657 62.369-139.067-15.508-22.363-29.443-44.901-41.615-67.263-19.308 26.49-40.643 49.266-65.874 55.461 6.619 52.658 21.747 103.238 45.119 150.869z" />
<glyph unicode="&#xf009;" glyph-name="uniF009" horiz-adv-x="269" d="M11.788 458.893l-11.788 5.004 210.584 496.104 49.61-21.058-203.769-480.049 203.769-480.049-49.61-21.058-210.584 496.104 11.788 5.004z" />
<glyph unicode="&#xf010;" glyph-name="uniF010" horiz-adv-x="269" d="M248.406 458.893l11.788 5.004-210.584 496.104-49.61-21.058 203.769-480.049-203.769-480.049 49.61-21.058 210.584 496.104-11.788 5.004z" />
<glyph unicode="&#xf011;" glyph-name="pitch_colour2" d="M0 764.952h1024v-48.762h-1024v48.762zM0 179.81h1024v-48.762h-1024v48.762zM0 764.952h48.762v-633.905h-48.762v633.905zM975.238 764.952h48.762v-633.905h-48.762v633.905zM487.619 764.952h48.762v-633.905h-48.762v633.905z" />
<glyph unicode="&#xf012;" glyph-name="TE_ball_icon" d="M512-64c-282.77 0-512 229.23-512 512s229.23 512 512 512c282.77 0 512-229.23 512-512s-229.23-512-512-512zM154.906 438.277c11.98 1.424 23.879 6.444 35.253 13.636 29.778 18.919 55.010 51.758 69.424 78.040 4.010 7.364 11.98 22.222 20.101 37.576 19.828 37.283 41.141 77.283 65.273 114.091 24.859 37.848 55.737 66.949 90.313 86.97 35.909 20.737 75.657 31.566 116.717 32.152 27.121 0.354 53.313-3.242 78.141-10.172 69.111-19.323 128.424-64.515 170.576-122.677 41.879-57.747 66.96-128.586 67.949-199.636 0.374-28.444-3.040-56.879-10.747-84.475-13.030-46.545-37.626-87.293-71.758-119.414-33.354-31.434-75.768-54.556-125.192-66.636-41.576-10.172-84.909-16.343-125.212-22.071-14.596-2.111-28.848-4.101-40.586-5.97-24.424-3.798-55.030-11.687-80.859-25.424-16.182-8.596-30.273-19.333-39.172-32.576-8.121-12.071-12.040-26.909-9.192-45.081 1.444-9.253 4.566-19.394 9.697-30.505 7.98-2.646 16.020-5.081 24.101-7.222 107.242-28.768 225.394-16.576 329.121 43.333 103.687 59.879 173.293 156.121 202.030 263.404 28.717 107.222 16.525 225.424-43.333 329.141-59.869 103.737-156.101 173.384-263.323 202.121-107.212 28.707-225.374 16.566-329.061-43.303-103.737-59.909-173.343-156.202-202.091-263.434-6.354-23.808-10.727-48.131-12.96-72.737 13.798-21.455 27.667-34.98 41.212-42.424 11.242-6.162 22.576-8.020 33.576-6.707zM321.691 147.656c14.603 21.727 35.887 39.496 62.372 53.538 29.718 15.821 65.588 26.64 101.154 32.199 10.388 1.619 19.508 2.965 34.68 5.149 4.217 0.607 4.217 0.607 6.718 0.966 58.817 8.325 87.387 13.094 118.999 20.833 37.748 9.219 70.548 26.752 96.391 51.129 25.635 24.135 44.013 54.699 53.751 89.606 5.96 21.255 8.767 43.465 8.479 66.196-0.786 56.666-20.824 114.687-55.769 162.861-35.22 48.549-82.953 83.609-135.57 98.32-19.562 5.458-39.62 8.124-59.901 7.859-30.3-0.426-59.383-8.395-85.504-23.481-26.377-15.278-49.704-37.724-68.634-66.548-12.601-19.224-25.249-40.797-40.097-67.912-6.223-11.364-10.509-19.358-22.144-41.192-8.268-15.569-12.836-24.067-20.617-38.238-21.727-39.581-55.31-78.562-91.39-101.5-20.037-12.718-40.888-20.752-62.088-23.265-24.749-2.947-49.078 1.689-72.176 14.383-2.946 1.613-5.857 3.354-8.735 5.224 6.958-55.747 24.948-111.078 54.782-162.761 40.683-70.484 98.177-125.201 164.464-162.081-2.043 29.032 5.23 55.44 20.836 78.713z" />
<glyph unicode="&#xf013;" glyph-name="TE_ball_icon_inverted" d="M99.968 436.781c13.823 1.643 27.552 7.436 40.676 15.734 34.359 21.83 63.473 59.72 80.105 90.047 4.627 8.497 13.823 25.641 23.193 43.357 22.879 43.019 47.471 89.172 75.315 131.643 28.683 43.671 64.312 77.249 104.207 100.35 41.434 23.928 87.296 36.422 134.674 37.098 31.294 0.408 61.515-3.741 90.163-11.737 79.744-22.296 148.182-74.441 196.818-141.55 48.322-66.632 77.261-148.368 78.403-230.35 0.431-32.821-3.508-65.629-12.401-97.471-15.035-53.706-43.415-100.723-82.797-137.786-38.485-36.27-87.424-62.949-144.452-76.888-47.972-11.737-97.972-18.858-144.476-25.466-16.841-2.436-33.287-4.732-46.83-6.888-28.182-4.382-63.497-13.485-93.298-29.336-18.671-9.918-34.93-22.308-45.198-37.587-9.371-13.928-13.893-31.049-10.606-52.016 1.667-10.676 5.268-22.378 11.189-35.198 9.207-3.054 18.485-5.862 27.809-8.333 123.741-33.193 260.070-19.126 379.755 50 119.639 69.091 199.953 180.14 233.112 303.928 33.135 123.718 19.068 260.105-50 379.779-69.079 119.697-180.117 200.058-303.834 233.217-123.706 33.124-260.047 19.114-379.685-49.965-119.697-69.126-200.012-180.233-233.182-303.963-7.331-27.471-12.378-55.536-14.953-83.928 15.921-24.755 31.923-40.361 47.552-48.951 12.972-7.11 26.049-9.254 38.741-7.739v0zM292.412 101.449c16.85 25.069 41.408 45.573 71.968 61.775 34.289 18.255 75.678 30.738 116.717 37.152 11.987 1.868 22.509 3.421 40.015 5.942 4.866 0.7 4.866 0.7 7.751 1.115 67.865 9.606 100.831 15.109 137.307 24.038 43.555 10.638 81.401 30.868 111.22 58.995 29.579 27.849 50.784 63.114 62.020 103.391 6.876 24.525 10.116 50.152 9.784 76.38-0.907 65.384-24.028 132.331-64.349 187.917-40.639 56.018-95.715 96.471-156.428 113.447-22.572 6.298-45.716 9.374-69.116 9.068-34.961-0.491-68.518-9.686-98.658-27.094-30.435-17.629-57.351-43.528-79.193-76.786-14.54-22.181-29.134-47.074-46.265-78.36-7.18-13.112-12.126-22.336-25.551-47.529-9.54-17.965-14.811-27.77-23.789-44.121-25.070-45.671-63.819-90.648-105.451-117.115-23.119-14.675-47.179-23.945-71.64-26.844-28.557-3.401-56.628 1.949-83.28 16.595-3.399 1.862-6.758 3.87-10.079 6.028 8.029-64.323 28.786-128.167 63.21-187.801 46.942-81.328 113.281-144.463 189.767-187.017-2.358 33.499 6.034 63.969 24.041 90.822z" />
<glyph unicode="&#xf014;" glyph-name="beachvolleyball" horiz-adv-x="1014" d="M145.452 108.088c30.173-31.685 64.52-59.353 102.195-82.13 27.923 79.469 76.914 163.11 141.178 231.99-16.481 63.39-37.352 118.52-64.598 168.875-100.791-91.392-166.322-226.993-178.776-318.735v0zM18.938 352.414c11.845-60.787 34.895-117.597 67.005-168.159 30.359 106.163 101.066 224.595 197.583 307.755-29.131 40.8-63.822 79.144-105.397 117.301-78.25-73.85-134.245-173.934-159.192-256.899v0zM76.209 693.064c-28.984-49.797-49.472-105.152-59.422-164.053 28.562 46.584 63.448 91.176 103.482 129.874-14.026 11.305-28.699 22.669-44.061 34.179v0zM240.321 803.48c195.875-145.304 292.277-274.735 345.491-467.261-24.771-1.13-53.686-1.827-88.622-2.141-52.832 172.441-140.972 296.52-305.821 427.797 15.293 15.027 31.635 28.925 48.952 41.605zM241.372 863.481c-46.467-29.082-87.747-65.678-122.094-108.040 181.595-135.629 278.801-257.792 334.323-446.959l4.224-22.541 15.018-1.13c74.243 0.303 129.687 1.944 174.7 6.581-56.858 255.229-169.907 402.83-406.17 572.090v0zM503.476 889.362c2.141 0 4.282-0.010 6.424-0.040 172.314-124.825 270.149-298.161 284.37-503.464-0.491-0.265-0.973-0.53-1.454-0.795-12.405-6.777-23.916-12.474-35.133-17.315-30.447 116.074-73.241 212.032-132.888 298.73-51.259 74.459-116.683 144.243-202.584 215.529 26.607 4.891 53.765 7.357 81.266 7.357zM503.476 938.47c-66.022 0-129-12.906-186.565-36.321 230.822-171.528 347.082-331.809 405.581-598.117 33.6 8.574 62.437 20.763 93.867 37.931 9.458 5.166 18.917 10.834 28.424 16.992-7.633 243.128-123.273 442.697-318.55 579.003-7.553 0.334-15.136 0.511-22.757 0.511v0zM994.712 494.84c-18.19 186.486-140.913 342.475-309.042 409.058 131.798-129.844 213.594-295.791 231.647-488.486 24.859 22.482 50.504 48.755 77.395 79.429v0zM920.154 182.88c37.774 59.157 63.243 126.878 72.711 199.589-47.851-46.83-93.562-81.452-139.97-106.831-103.915-56.838-180.995-66.504-405.885-66.533-32.755-34.789-60.974-73.88-83.898-113.569 152.395-0.403 221.579 1.915 306.666 13.869 91.008 12.768 173.856 36.301 250.377 73.477v0zM809.817 60.992c-84.163-66.483-190.602-106.184-306.331-106.184-66.621 0-130.127 13.152-188.097 36.999 3.163 9.213 6.709 18.613 10.578 28.12 9.37 0 18.534 0 36.291-0.069 156.431-0.431 228.15 1.965 318.118 14.605 44.827 6.277 87.925 15.047 129.441 26.528v0z" />
<glyph unicode="&#xf015;" glyph-name="volleyball" horiz-adv-x="1014" d="M145.457 108.085c30.175-31.679 64.518-59.355 102.192-82.13 27.924 79.461 76.915 163.106 141.175 231.986-16.48 63.391-37.354 118.528-64.592 168.882-100.799-91.387-166.324-226.989-178.775-318.738v0zM18.941 352.412c11.84-60.797 34.9-117.599 67.004-168.167 30.357 106.164 101.068 224.597 197.58 307.762-29.135 40.798-63.821 79.14-105.396 117.301-78.255-73.844-134.243-173.933-159.188-256.895v0zM76.214 693.061c-28.985-49.799-49.473-105.15-59.428-164.057 28.567 46.585 63.456 91.173 103.478 129.878-14.027 11.307-28.695 22.668-44.051 34.178v0zM119.279 755.438c181.593-135.623 278.803-257.792 334.32-446.951l4.225-23.671h15.020c74.236 0.299 129.689 1.943 174.703 6.577-56.856 255.23-169.914 402.832-406.178 572.089-46.473-29.085-87.748-65.676-122.091-108.044zM526.228 937.955c-7.544 0.342-15.13 0.512-22.749 0.512-66.017 0-129.003-12.909-186.566-36.324 230.82-171.531 347.082-331.808 405.577-598.12 33.603 8.573 62.449 20.756 93.867 37.936 9.462 5.168 18.913 10.827 28.417 16.999-7.618 243.132-123.27 442.691-318.547 578.997v0zM994.715 494.837c-18.195 186.489-140.918 342.473-309.042 409.058 131.799-129.846 213.59-295.792 231.646-488.485 24.86 22.476 50.502 48.763 77.397 79.429v0zM920.157 182.879c37.772 59.163 63.242 126.878 72.714 199.591-47.855-46.83-93.567-81.447-139.975-106.826-103.907-56.846-180.983-66.509-405.877-66.541-32.757-34.787-60.97-73.887-83.902-113.574 152.383-0.406 221.572 1.922 306.664 13.87 91.005 12.77 173.857 36.303 250.375 73.481v0zM809.822 60.987c-84.169-66.477-190.605-106.175-306.342-106.175-66.617 0-130.127 13.155-188.097 36.986 3.161 9.215 6.708 18.621 10.576 28.134 9.365 0 18.538-0.011 36.293-0.075 156.434-0.427 228.142 1.975 318.118 14.607 44.833 6.278 87.931 15.045 129.452 26.522v0z" />
<glyph unicode="&#xf016;" glyph-name="BA_score_point" d="M40.151-18.214c70.134-70.134 205.015-48.962 301.267 47.304l-253.956 253.956c-96.259-96.259-117.409-231.147-47.311-301.26zM105.839 307.592l259.705-259.69 662.56 345.689-566.381 566.381-355.884-652.379zM721.536 625.592l98.663-100.039-508.223-352.3-21.288 21.505 430.848 430.833zM256.020 229.906l-28.036 28.485 364.472 498.020 94.376-95.68-430.812-430.826zM473.062 877.513l84.261-85.434-364.515-498.078-24.286 24.706 304.54 558.807zM375.355 108.948l-28.167 28.514 508.201 352.452 82.755-84-562.789-296.966z" />
<glyph unicode="&#xf017;" glyph-name="BA_zogica" horiz-adv-x="878" d="M431.070 12.349c96.774-0.105 175.103 102.619 174.953 229.451l-350.426 0.382c0.15-126.841 78.739-229.728 175.473-229.833zM251.306 270.454l358.347-0.373 217.843 664.016-781.531 0.831 205.34-664.474zM455.986 885.376l137.083-1.060-106.906-566.803-29.517 0.172-0.66 567.691zM408.474 318.048l-38.99 0.334-92.813 568.322 131.132-0.993 0.67-567.662zM110.742 888.013l117.079-0.907 92.813-568.388-33.798 0.306-176.093 568.99zM574.255 316.807l-39.1 0.267 106.776 566.898 115.048-0.946-182.725-566.22z" />
<glyph unicode="&#xf018;" glyph-name="racket6" horiz-adv-x="543" d="M249.303-29.164l-7.321-27.904c-0.687-3.86 2.099-6.932 7.321-6.932h43.91c5.233 0 8.008 3.092 7.321 6.943l-7.321 27.904c1.033 0 1.033 174.152 0 208.978 1.033 27.864-14.295 69.683-14.653 69.683v327.373h-14.612v-327.393c-0.348 0-15.677-41.82-14.643-69.683-1.033-41.789-1.033-208.967 0-208.967v0zM412.938 771.922c-12.902 97.526-63.355 188.081-141.507 188.081-78.141 0-128.635-83.589-141.486-188.081-12.861-104.509 38.595-202.015 141.486-202.015 96.481 0.010 154.348 104.489 141.507 202.015v0zM142.705 770.068c13.015 105.759 62.648 175.995 128.727 175.995 64.329 0 115.282-73.912 128.768-176.128 12.677-96.164-45.844-186.102-128.768-186.102-88.709 0-141.558 82.074-128.727 186.235v0z" />
<glyph unicode="&#xf019;" glyph-name="TT_icon" horiz-adv-x="1092" d="M762.188 418.366c-4.618 10.028-16.428 12.506-29.366-0.461l-156.593-156.593c-12.361-13.425-9.878-25.33-0.461-29.366 3.583-0.442 108.545-15.881 182.268-77.873 29.563-23.574 118.926-134.933 122.614-137.527 6.162-6.94 20.889-8.074 29.366 0.461l67.111 67.111c6.487 6.924 5.34 21.739 0.461 29.366-4.574 2.291-91.237 69.57-137.527 122.614-67.183 69.581-78.022 179.201-77.873 182.268zM152.424 849.166c-148.615-149.511-146.547-389.379-1.077-535.812 94.359-94.957 220.242-130.942 335.863-112.158 23.675 56.536 66.713 120.078 120.231 178.041 63.797 60.059 126.947 103.354 185.497 127.688 16.345 115.792-19.41 242.496-112.158 335.863-147.073 148.046-385.401 150.196-528.355 6.379v0 0zM536.101 510.23c-43.525 43.753-42.38 116.314 2.537 161.512 45.411 45.69 117.508 46.814 161.512 2.537 43.524-43.798 42.357-116.337-2.537-161.512-45.448-45.698-117.493-46.829-161.512-2.537v0 0z" />
<glyph unicode="&#xf020;" glyph-name="Table_tennis" d="M512-64c282.77 0 512 229.23 512 512s-229.23 512-512 512c-282.77 0-512-229.23-512-512s229.23-512 512-512v0zM503.018 25.825c-228.2 0-413.193 184.993-413.193 413.193 0 95.073 44.912 133.552 44.912 67.368 0-240.602 195.047-435.649 435.649-435.649 66.184 0 27.705-44.912-67.368-44.912z" />
<glyph unicode="&#xf021;" glyph-name="soccer_ball" d="M750.545 339.159c-35.779-1.843-65.382-4.639-77.281-5.837-10.998 17.715-41.697 69.581-53.412 88.914-11.848 19.589-38.615 63.939-50.094 83.374 6.912 13.804 17.357 57.426 29.143 87.409 9.001 22.866 21.166 63.15 26.327 78.203 19.63 0.246 78.93 1.075 102.892 2.499 20.183 1.178 58.798 3.707 73.882 4.7 8.499-11.622 31.263-43.090 50.258-72.991 18.258-28.723 37.448-70.4 44.421-85.965-1.178-4.045-13.558-46.090-29.553-85.34-11.766-28.867-36.772-76.831-46.275-94.812-13.814 0.307-48.957 0.952-70.308-0.154v0zM575.267 168.643c-14.152-2.14-59.628-8.643-94.628-8.643-37.294 0-93.737 2.857-113.183 3.891-10.486 13.046-35.994 45.537-53.279 73.851-18.125 29.676-35.707 67.174-42.527 82.176 5.734 12.442 27.658 59.443 48.712 97.219 19.272 34.57 45.189 69.448 52.306 78.858 16.046-0.696 66.56-2.836 86.057-3.195 19.528-0.338 71.311 0.655 88.678 1.024 11.694-19.763 42.516-71.854 54.333-91.341 11.889-19.63 43.868-71.127 54.548-88.32-7.844-11.274-25.979-37.99-40.479-63.908-17.050-30.474-34.079-67.338-40.54-81.613zM129.673 339.773c-9.052 17.336-29.051 58.030-38.011 95.508-9.728 40.704-12.288 88.73-12.308 89.211h-0.020c6.031 18.79 19.149 56.556 35.154 83.64 11.756 19.855 31.56 49.080 37.857 58.307 14.705 0.604 59.884 2.406 76.39 2.355 15.933-0.082 56.812-2.13 73.656-3.011 2.14-12.667 8.038-45.906 15.739-73.544 8.684-31.119 24.156-68.506 30.454-83.21-6.636-8.94-32.635-44.657-51.948-80.138-19.63-36.055-39.997-80.435-46.787-95.437-10.547-0.502-35.533-1.321-60.088 0.256-26.573 1.71-50.022 4.69-60.088 6.062zM420.571 896.522c15.575-1.29 41.492-4.588 53.012-6.083-1.761-9.81-6.113-34.007-9.431-51.988-3.635-19.702-6.615-46.316-7.905-58.655-15.053-7.731-53.053-27.453-73.185-40.069-28.088-17.603-58.194-41.667-70.461-51.732-13.384 0.696-62.044 3.164-80.456 3.267-16.425 0.092-58.255-1.526-75.868-2.253 0.963 10.537 13.271 86.344 16.609 98.724 57.446 53.258 112.876 94.249 190.013 116.439zM798.315 703.242c-16.026-1.014-49.275-2.109-68.721-3.215-25.334-1.434-88.556-3.154-103.301-3.308-13.466 10.066-60.733 40.755-83.261 55.644-24.289 16.036-48.824 22.364-60.324 28.303 1.382 12.493 4.69 43.796 8.038 61.44 3.492 18.299 6.636 38.83 8.192 47.237 16.456 1.249 58.030 9.861 85.586 9.861 11.561 0 49.879 0.246 59.924 0 0 0 41.626-19.21 100.372-59.423 30.331-20.746 55.46-50.34 63.785-59.116-0.379-9.912-2.386-25.027-2.847-31.724-1.178-16.486-5.489-36.628-7.444-45.701v0zM822.901 784.21c0 0-30.945 37.396-68.198 63.744-35.727 25.262-86.927 53.678-86.508 53.658 84.582-29.235 157.563-79.176 212.152-145.285zM47.61 520.028c2.028-0.983 7.086-3.113 11.182-4.813 1.27-15.708 4.7-50.575 12.411-81.377 10.342-41.288 33.69-85.053 42.107-100.035-2.058-12.104-4.772-35.482-1.638-63.805 3.533-31.908 13.855-63.15 17.551-74.394-2.591-0.113-8.735 0-11.899 0-5.038 0-10.967-0.246-14.090 0-45.783 73.165-71.813 157.501-71.813 247.695 0 27.556 1.198 55.777 6.021 81.981zM137.599 169.595c8.192-8.243 32.676-32.061 61.85-53.238 27.648-20.101 62.648-39.178 76.769-46.643 0 0 31.396-34.099 49.92-51.118 0 0 21.709-16.835 33.526-25.764-98.918 33.096-180.941 95.939-239.493 176.763zM400.224-18.903c-30.72 21.996-32.348 23.48-51.558 40.919l-3.758 3.41c-14.080 12.769-35.308 36.127-44.401 46.295 6.042 5.519 17.49 16.404 30.515 30.935 11.878 13.22 28.109 33.997 35.062 42.977 20.951-1.116 75.008-3.758 111.165-3.758 34.652 0 79.237 6.195 94.607 8.52 7.332-9.236 26.255-32.184 46.52-48.886 19.476-16.046 38.953-27.668 47.524-32.502-2.017-5.612-8.622-21.545-25.59-44.319-19.866-26.685-40.376-45.046-44.308-48.466-28.068-5.366-57.037-8.223-86.682-8.223-37.591 0-74.117 4.557-109.097 13.097zM660.904 24.699c22.538 29.42 27.945 48.097 28.18 48.876 13.302 4.946 47.677 18.135 75.899 35.564 30.239 18.657 56.771 42.332 65.976 50.862 7.035-3.543 19.62-7.496 27.996-11.561 6.963-3.379 17.439-5.56 22.098-7.076-63.13-74.24-153.324-135.772-255.201-159.58 8.94 8.632 22.804 26.941 35.052 42.916v0zM871.541 167.997c-8.704 4.219-22.415 11.1-29.44 14.643 1.597 13.056 5.069 45.199 3.881 70.789-1.106 24.044-5.038 56.422-7.004 71.588 7.444 13.588 36.639 67.359 49.859 98.847 15.186 36.157 27.197 74.68 30.034 83.896 11.254 2.58 33.853 7.434 45.752 7.434 7.69 0 17.889 0.655 23.788 0 3.738-23.194 4.669-48.742 4.669-72.96 0-106.516-38.482-205.507-99.041-285.143z" />
<glyph unicode="&#xf022;" glyph-name="ball_spot" d="M512 608c326.4 0 448-99.904 448-162.816 0-78.272-138.496-157.184-448-157.184-352.832 0-447.36 104.704-448 160.128-0.192 17.984 9.408 37.504 27.904 56.128 30.784 31.232 133.376 103.744 420.096 103.744zM512 672c-389.632 0-513.216-128-512-224.704 1.152-96.704 122.368-223.296 512-223.296 376.768 0 512 108.864 512 221.184 0 98.816-135.232 226.816-512 226.816v0z" />
<glyph unicode="&#xf023;" glyph-name="replay_tab" d="M512-64c-282.77 0-512 229.23-512 512s229.23 512 512 512c282.77 0 512-229.23 512-512s-229.23-512-512-512zM400.267 697.545c-32.548 18.905-58.934 3.716-58.934-34.23v-430.63c0-37.809 26.268-53.203 58.934-34.23l370.708 215.315c32.548 18.905 32.666 49.487 0 68.46l-370.708 215.315z" />
<glyph unicode="&#xf024;" glyph-name="info_tab" d="M1022.965 447.703c0-282.934-228.998-512.297-511.482-512.297s-511.482 229.363-511.482 512.297c0 282.934 228.998 512.297 511.482 512.297s511.482-229.363 511.482-512.297zM613.779 191.555c0 56.587-45.8 102.459-102.296 102.459s-102.296-45.873-102.296-102.459c0-56.587 45.8-102.459 102.296-102.459s102.296 45.873 102.296 102.459zM409.186 703.842v-256.129c0-56.592 45.915-102.469 102.296-102.469 56.497 0 102.296 45.895 102.296 102.469v256.129c0 56.592-45.915 102.469-102.296 102.469-56.497 0-102.296-45.895-102.296-102.469z" />
<glyph unicode="&#xf026;" glyph-name="position_red" horiz-adv-x="512" d="M256 546.048c62.61 0 173.019-51.968 215.845-74.862 2.194-2.377 3.255-4.352 3.511-5.266-22.309-319.671-188.233-484.389-189.477-485.595-2.889-2.267-15.579-7.753-29.842-7.753-14.226 0.037-27.063 5.522-28.928 6.839-1.573 1.609-158.61 164.389-189.111 488.594 0 0.073 0.549 1.792 4.608 5.303 53.723 46.226 131.511 72.741 213.394 72.741zM256 582.619c-87.003 0-174.043-27.209-237.239-81.591-6.51-5.632-18.761-17.737-17.189-36.169 32.293-343.333 199.57-511.232 199.57-511.232 9.106-8.777 32.073-17.591 54.857-17.627 0.037 0 0.073 0 0.146 0 22.894 0 45.568 8.777 54.711 17.627 0 0 178.066 171.227 201.143 512 0 17.627-12.983 30.574-18.286 35.291 0 0.037-149.138 81.701-237.714 81.701v0zM256 905.143c70.583 0 128-57.417 128-128s-57.417-128-128-128-128 57.417-128 128 57.417 128 128 128zM256 941.714c-90.88 0-164.571-73.691-164.571-164.571s73.691-164.571 164.571-164.571 164.571 73.691 164.571 164.571c0 90.88-73.691 164.571-164.571 164.571v0z" />
<glyph unicode="&#xf027;" glyph-name="card1" horiz-adv-x="727" d="M66.065 960h594.581c36.486 0 66.065-29.578 66.065-66.065v-891.871c0-36.486-29.578-66.065-66.065-66.065h-594.581c-36.486 0-66.065 29.578-66.065 66.065v891.871c0 36.486 29.578 66.065 66.065 66.065z" />
<glyph unicode="&#xf028;" glyph-name="Handball" d="M655.309 501.278l-56.665-174.404h-183.387l-56.675 174.404 148.368 107.773 148.358-107.773zM455.001-51.215c17.053-1.754 34.38-2.646 51.94-2.646 18.077 0 35.952 0.963 53.512 2.808l26.948 39.612 92.454 136.040-74.732 143.786h-196.344l-76.78-147.649 123.002-171.951zM140.329 102.973c62.373-65.283 142.062-113.958 231.606-138.656l-89.22 124.756-142.387 13.9zM7.361 366.617c12.562-73.181 40.828-140.947 81.149-199.812l191.772-18.736 80.967 155.719-1.592 5.008-58.692 180.609-160.778 38.8-132.826-161.589zM69.956 710.195c-44.438-75.391-69.956-163.282-69.956-257.125v-3.265l94.178 114.526-24.221 145.864zM295.328 913.879c-68.811-31.663-129.318-78.29-177.334-135.685l31.856-192.137 169.589-40.95 152.971 111.15-2.555 178.358-174.526 79.264zM639.888 942.399c-42.359 11.477-86.949 17.601-132.948 17.601-46.019 0-90.599-6.124-132.938-17.601l132.938-60.375 132.948 60.375zM895.878 778.194c-47.996 57.395-108.514 104.022-177.324 135.685l-190.099-86.34 2.332-163.516 163.678-118.916 169.568 40.95 31.845 192.137zM1013.861 449.805v3.265c0 93.843-25.509 181.735-69.926 257.125l-24.241-145.864 94.167-114.526zM926.436 168.377c39.774 58.5 67.625 125.719 80.095 198.24l-132.867 161.599-160.748-38.8-1.997-6.215-56.685-174.394-1.602-5.008 80.744-155.242 193.059 19.821zM873.543 102.973c-49.040-51.352-108.797-92.444-175.672-119.636-18.108-7.391-36.823-13.748-55.945-19.020l89.24 124.756 142.377 13.9z" />
<glyph unicode="&#xf029;" glyph-name="Penalty" d="M811.674 79.002c-82.964-63.928-186.839-102.042-299.674-102.042s-216.709 38.113-299.674 102.042c-128.584-13.957-212.326-36.628-212.326-62.259 0-42.424 229.233-76.8 512-76.8 282.757 0 512 34.376 512 76.8 0 25.631-83.743 48.302-212.326 62.259v0zM750.545 339.159c-35.779-1.843-65.382-4.639-77.281-5.837-10.998 17.715-41.697 69.581-53.412 88.914-11.848 19.589-38.615 63.939-50.094 83.374 6.912 13.804 17.357 57.426 29.143 87.409 9.001 22.866 21.166 63.15 26.327 78.203 19.63 0.246 78.93 1.075 102.892 2.499 20.183 1.178 58.798 3.707 73.882 4.7 8.499-11.622 31.263-43.090 50.258-72.991 18.258-28.723 37.448-70.4 44.421-85.965-1.178-4.045-13.558-46.090-29.553-85.34-11.766-28.867-36.772-76.831-46.275-94.812-13.814 0.307-48.957 0.952-70.308-0.154v0zM575.267 168.643c-14.152-2.14-59.628-8.643-94.628-8.643-37.294 0-93.737 2.857-113.183 3.891-10.486 13.046-35.994 45.537-53.279 73.851-18.125 29.676-35.707 67.174-42.527 82.176 5.734 12.442 27.658 59.443 48.712 97.219 19.272 34.57 45.189 69.448 52.306 78.858 16.046-0.696 66.56-2.836 86.057-3.195 19.528-0.338 71.311 0.655 88.678 1.024 11.694-19.763 42.516-71.854 54.333-91.341 11.889-19.63 43.868-71.127 54.548-88.32-7.844-11.274-25.979-37.99-40.479-63.908-17.050-30.474-34.079-67.338-40.54-81.613zM129.673 339.773c-9.052 17.336-29.051 58.030-38.011 95.508-9.728 40.704-12.288 88.73-12.308 89.211h-0.020c6.031 18.79 19.149 56.556 35.154 83.64 11.756 19.855 31.56 49.080 37.857 58.307 14.705 0.604 59.884 2.406 76.39 2.355 15.933-0.082 56.812-2.13 73.656-3.011 2.14-12.667 8.038-45.906 15.739-73.544 8.684-31.119 24.156-68.506 30.454-83.21-6.636-8.94-32.635-44.657-51.948-80.138-19.63-36.055-39.997-80.435-46.787-95.437-10.547-0.502-35.533-1.321-60.088 0.256-26.573 1.71-50.022 4.69-60.088 6.062zM420.571 896.522c15.575-1.29 41.492-4.588 53.012-6.083-1.761-9.81-6.113-34.007-9.431-51.988-3.635-19.702-6.615-46.316-7.905-58.655-15.053-7.731-53.053-27.453-73.185-40.069-28.088-17.603-58.194-41.667-70.461-51.732-13.384 0.696-62.044 3.164-80.456 3.267-16.425 0.092-58.255-1.526-75.868-2.253 0.963 10.537 13.271 86.344 16.609 98.724 57.446 53.258 112.876 94.249 190.013 116.439zM798.315 703.242c-16.026-1.014-49.275-2.109-68.721-3.215-25.334-1.434-88.556-3.154-103.301-3.308-13.466 10.066-60.733 40.755-83.261 55.644-24.289 16.036-48.824 22.364-60.324 28.303 1.382 12.493 4.69 43.796 8.038 61.44 3.492 18.299 6.636 38.83 8.192 47.237 16.456 1.249 58.030 9.861 85.586 9.861 11.561 0 49.879 0.246 59.924 0 0 0 41.626-19.21 100.372-59.423 30.331-20.746 55.46-50.34 63.785-59.116-0.379-9.912-2.386-25.027-2.847-31.724-1.178-16.486-5.489-36.628-7.444-45.701v0zM822.901 784.21c0 0-30.945 37.396-68.198 63.744-35.727 25.262-86.927 53.678-86.508 53.658 84.582-29.235 157.563-79.176 212.152-145.285zM47.61 520.028c2.028-0.983 7.086-3.113 11.182-4.813 1.27-15.708 4.7-50.575 12.411-81.377 10.342-41.288 33.69-85.053 42.107-100.035-2.058-12.104-4.772-35.482-1.638-63.805 3.533-31.908 13.855-63.15 17.551-74.394-2.591-0.113-8.735 0-11.899 0-5.038 0-10.967-0.246-14.090 0-45.783 73.165-71.813 157.501-71.813 247.695 0 27.556 1.198 55.777 6.021 81.981zM137.599 169.595c8.192-8.243 32.676-32.061 61.85-53.238 27.648-20.101 62.648-39.178 76.769-46.643 0 0 31.396-34.099 49.92-51.118 0 0 21.709-16.835 33.526-25.764-98.918 33.096-180.941 95.939-239.493 176.763zM400.224-18.903c-30.72 21.996-32.348 23.48-51.558 40.919l-3.758 3.41c-14.080 12.769-35.308 36.127-44.401 46.295 6.042 5.519 17.49 16.404 30.515 30.935 11.878 13.22 28.109 33.997 35.062 42.977 20.951-1.116 75.008-3.758 111.165-3.758 34.652 0 79.237 6.195 94.607 8.52 7.332-9.236 26.255-32.184 46.52-48.886 19.476-16.046 38.953-27.668 47.524-32.502-2.017-5.612-8.622-21.545-25.59-44.319-19.866-26.685-40.376-45.046-44.308-48.466-28.068-5.366-57.037-8.223-86.682-8.223-37.591 0-74.117 4.557-109.097 13.097zM660.904 24.699c22.538 29.42 27.945 48.097 28.18 48.876 13.302 4.946 47.677 18.135 75.899 35.564 30.239 18.657 56.771 42.332 65.976 50.862 7.035-3.543 19.62-7.496 27.996-11.561 6.963-3.379 17.439-5.56 22.098-7.076-63.13-74.24-153.324-135.772-255.201-159.58 8.94 8.632 22.804 26.941 35.052 42.916v0zM871.541 167.997c-8.704 4.219-22.415 11.1-29.44 14.643 1.597 13.056 5.069 45.199 3.881 70.789-1.106 24.044-5.038 56.422-7.004 71.588 7.444 13.588 36.639 67.359 49.859 98.847 15.186 36.157 27.197 74.68 30.034 83.896 11.254 2.58 33.853 7.434 45.752 7.434 7.69 0 17.889 0.655 23.788 0 3.738-23.194 4.669-48.742 4.669-72.96 0-106.516-38.482-205.507-99.041-285.143z" />
<glyph unicode="&#xf030;" glyph-name="pitch" d="M640 453.12c0 71.5-57.308 129.463-128 129.463s-128-57.962-128-129.463c0-71.5 57.308-129.463 128-129.463s128 57.962 128 129.463zM433.067 453.12c0 42.396 34.883 77.678 78.933 77.678s78.933-35.282 78.933-77.678c0-42.396-34.883-77.678-78.933-77.678s-78.933 35.282-78.933 77.678zM0 755.2h1024v-86.309h-1024v86.309zM0 237.349h1024v-86.309h-1024v86.309zM0 755.2h89.043v-561.006h-89.043v561.006zM934.957 755.2h89.043v-561.006h-89.043v561.006zM890.435 539.429h133.565v-172.617h-133.565v172.617zM0 539.429h133.565v-172.617h-133.565v172.617zM469.333 755.2h85.333v-561.006h-85.333v561.006z" />
<glyph unicode="&#xf031;" glyph-name="Stadium" d="M-2.425 555.697h-0.167v-166.293l0.144-3.407c1.375-32.59 12.62-66.114 34.627-97.433l136.57-194.362c67.054-95.43 208.62-134.248 316.209-86.697l433.481 191.585c81.42 35.985 108.154 107.004 108.154 186.907v169.7h-3.108c14.81-75.542-23.818-150.353-105.046-186.225l-433.481-191.435c-107.589-47.514-249.155-8.726-316.209 86.629l-136.57 194.21c-21.886 31.123-33.128 64.425-34.603 96.821zM495.486 162.913l413.627 183.374c116.386 51.598 152.767 180.339 79.822 284.471l-130.315 186.033c-70.503 100.647-217.401 141.049-330.106 91.083l-413.627-183.374c-116.386-51.598-152.767-180.339-79.822-284.471l130.315-186.033c70.503-100.647 217.401-141.049 330.106-91.083zM73.244 468.608c-55.023 78.548-28.703 171.684 60.222 211.108l413.627 183.374c92.614 41.059 215.881 7.157 273.347-74.879l130.315-186.033c55.023-78.548 28.703-171.684-60.222-211.108l-413.627-183.374c-92.614-41.059-215.881-7.157-273.347 74.879l-130.315 186.033zM510.696 480.317l-56.64 77.695 177.262 79.314 132.037-175.84c3.991-5.315 11.394-6.279 16.535-2.153s6.074 11.778 2.083 17.093l-136.364 181.603c-2.851 3.797-7.444 5.374-11.71 4.46v0c-2.349 0.547-4.882 0.357-7.261-0.708l-387.909-173.565c-5.973-2.673-8.719-9.844-6.134-16.019s9.523-9.013 15.496-6.341l191.129 85.519 56.565-77.592c-11.604-7.33-19.139-18.658-19.139-31.785 0-23.086 23.305-40.607 51.066-40.607 6.602 0 12.952 0.991 18.796 2.812l20.354-27.92 12.549 9.775-18.309 25.115c10.771 7.34 17.677 18.258 17.677 30.825 0 23.086-23.305 40.607-51.066 40.607-5.938 0-11.671-0.801-17.017-2.287zM492.359 441.997c0 12.796 15.387 24.364 35.354 24.364s35.354-11.568 35.354-24.364c0-12.796-15.387-24.364-35.354-24.364s-35.354 11.568-35.354 24.364zM468.585 310.632l306.784 136.538c58.196 25.901 76.379 90.481 39.925 142.724l-86.901 124.54c-35.264 50.537-108.717 70.824-165.121 45.72l-306.784-136.538c-58.196-25.901-76.379-90.481-39.925-142.724l86.901-124.54c35.264-50.537 108.717-70.824 165.121-45.72zM235.678 495.145c-27.543 39.473-14.361 86.292 30.13 106.093l306.784 136.538c46.332 20.621 107.936 3.607 136.685-37.595l86.901-124.54c27.543-39.473 14.361-86.292-30.13-106.093l-306.784-136.538c-46.332-20.621-107.936-3.607-136.685 37.595l-86.901 124.54z" />
<glyph unicode="&#xf032;" glyph-name="weather" d="M849.171 470.201c0 128.514-100.689 232.696-224.895 232.696-120.776 0-219.316-98.507-224.666-222.106 32.532 21.805 70.847 34.384 111.864 34.384 91.904 0 170.246-63.153 200.35-151.737 3.555 0.25 7.141 0.377 10.755 0.377 31.688 0 61.259-9.75 86.26-26.614 25.422 37.697 40.332 83.548 40.332 133.001zM654.361 866.144c0 12.248-10.064 22.176-22.478 22.176s-22.478-9.929-22.478-22.176v-115.318c0-12.248 10.064-22.176 22.478-22.176s22.478 9.929 22.478 22.176v115.318zM836.267 808.698c5.997 10.606 2.438 24.168-7.949 30.292s-23.668 2.49-29.665-8.117l-56.462-99.861c-5.997-10.606-2.438-24.168 7.949-30.292s23.668-2.49 29.665 8.117l56.462 99.861zM958.297 650.806c10.286 6.184 13.81 19.879 7.871 30.589s-19.091 14.38-29.377 8.196l-96.846-58.221c-10.286-6.184-13.81-19.879-7.871-30.589s19.091-14.38 29.377-8.196l96.846 58.221zM1002.493 455.665c11.878 0 21.507 10.377 21.507 23.178s-9.629 23.178-21.507 23.178h-111.835c-11.878 0-21.507-10.377-21.507-23.178s9.629-23.178 21.507-23.178h111.835zM936.792 268.094c10.286-6.184 23.438-2.514 29.377 8.196s2.414 24.405-7.871 30.589l-96.846 58.221c-10.286 6.184-23.438 2.514-29.377-8.196s-2.414-24.405 7.871-30.589l96.846-58.221zM316.984 689.591c-10.286 6.184-23.438 2.514-29.377-8.196s-2.414-24.405 7.871-30.589l96.846-58.221c10.286-6.184 23.438-2.514 29.377 8.196s2.414 24.405-7.871 30.589l-96.846 58.221zM460.117 830.873c-5.997 10.606-19.278 14.24-29.665 8.117s-13.946-19.685-7.949-30.292l56.462-99.861c5.997-10.606 19.278-14.24 29.665-8.117s13.946 19.685 7.949 30.292l-56.462 99.861zM716.747 75.83c50.28 8.587 87.731 53.811 87.731 107.138 0 59.977-47.023 108.597-105.029 108.597-2.344 0-4.675-0.079-6.992-0.235l-33.4-2.255-11.49 32.506c-21.935 62.055-78.516 103.998-142.533 103.998-29.646 0-57.932-8.876-82.268-25.357l-37.117-25.137-24.58 38.194c-25.253 39.24-67.206 63.133-113.021 63.133-75.161 0-136.314-64.012-136.314-143.256 0-12.156 1.431-24.075 4.228-35.586l8.72-35.887-31.961-16.645c-29.222-15.219-48.027-46.135-48.027-80.555 0-50 39.249-90.112 89.386-90.112h582.667l7.283-45.173c70.995 13.163 125.141 76.928 125.141 153.77 0 85.498-67.033 154.809-149.722 154.809-3.328 0-6.631-0.112-9.905-0.333-27.724 78.432-99.873 134.347-184.511 134.347-39.356 0-76.012-12.090-106.756-32.912-32.511 50.517-87.663 83.744-150.23 83.744-99.968 0-181.007-84.827-181.007-189.467 0-16.168 1.935-31.863 5.575-46.846-43.070-22.431-72.615-68.561-72.615-121.826 0-75.29 59.029-136.324 134.080-136.324h589.95l-7.283 47.67z" />
<glyph unicode="&#xf033;" glyph-name="Infocopy6" d="M512 911.238c255.439 0 463.238-207.97 463.238-463.628s-207.799-463.628-463.238-463.628-463.238 207.994-463.238 463.628 207.799 463.628 463.238 463.628zM512 960c-282.77 0-512-229.4-512-512.39s229.23-512.39 512-512.39c282.77 0 512 229.4 512 512.39s-229.23 512.39-512 512.39v0zM610.011 716.507c0 54.174-43.861 98.085-98.011 98.085-54.126 0-98.011-43.91-98.011-98.085s43.886-98.085 98.011-98.085c54.15 0 98.011 43.91 98.011 98.085zM415.451 459.386v-294.498c0-46.982 43.886-85.016 97.768-85.016 54.004 0 97.792 38.083 97.792 85.016v294.498c0 46.958-43.91 85.016-97.792 85.016-54.004 0-97.768-38.083-97.768-85.016z" />
<glyph unicode="&#xf034;" glyph-name="tracker_empty" d="M512 911.232c255.424 0 463.264-207.968 463.264-463.616s-207.84-463.616-463.264-463.616c-255.424 0-463.232 208-463.232 463.616s207.808 463.616 463.232 463.616zM512 960c-282.784 0-512-229.408-512-512.384s229.216-512.352 512-512.352 512 229.376 512 512.352-229.216 512.384-512 512.384v0zM400.96 535.2c22.88 15.296 37.92 41.408 37.92 71.008 0 4.288-0.32 8.544-0.928 12.64v0l152.416 55.52c12-32.672 43.328-55.968 80.128-55.968 47.168 0 85.344 38.24 85.344 85.376s-38.176 85.376-85.344 85.376c-44.512 0-81.056-34.112-84.992-77.664l-160.608-58.496c-15.232 23.232-41.536 38.56-71.36 38.56-47.136 0-85.344-38.24-85.344-85.376s38.208-85.376 85.344-85.376c4.512 0 8.96 0.352 13.248 1.024l70.592-144.224c-29.216-28.768-47.296-68.768-47.296-113.024 0-87.552 70.944-158.56 158.496-158.56 87.488 0 158.432 71.040 158.432 158.56 0 87.616-70.944 158.624-158.432 158.624-29.92 0-57.888-8.288-81.728-22.688l-65.888 134.688z" />
<glyph unicode="&#xf035;" glyph-name="volume-high3" d="M512 911.238c255.439 0 463.238-207.799 463.238-463.238s-207.799-463.238-463.238-463.238-463.238 207.799-463.238 463.238 207.799 463.238 463.238 463.238zM512 960c-282.77 0-512-229.23-512-512s229.23-512 512-512 512 229.23 512 512-229.23 512-512 512v0zM447.464 721.481v-547.718c0-25.088-14.117-31.086-31.378-13.385l-145.189 149.236c-9.411 9.679-27.77 17.53-41.472 17.53h-58.758c-13.458 0-24.381 10.996-24.381 24.43v192.098c0 13.483 10.703 24.43 24.405 24.43h58.758c13.483 0 32.012 7.802 41.472 17.53l145.189 149.236c17.237 17.725 31.354 11.703 31.354-13.385zM815.421 371.054v-60.66h-60.611l-76.532 76.581-76.556-76.581h-60.587v60.66l76.532 76.581-76.532 76.605v60.66h60.587l76.556-76.605 76.532 76.605h60.611v-60.66l-76.556-76.605 76.556-76.581z" />
<glyph unicode="&#xf036;" glyph-name="r5" d="M512 911.238c255.439 0 463.238-207.97 463.238-463.628s-207.799-463.628-463.238-463.628-463.238 207.994-463.238 463.628 207.799 463.628 463.238 463.628zM512 960c-282.77 0-512-229.4-512-512.39s229.23-512.39 512-512.39c282.77 0 512 229.4 512 512.39s-229.23 512.39-512 512.39v0zM381.050 720.798c-23.357 13.556-42.301 2.974-42.325-24.088l-0.171-509.611c0-26.892 18.871-37.669 42.301-24.040l437.931 254.464c23.381 13.605 23.43 35.572 0.024 49.152l-437.76 254.123z" />
<glyph unicode="&#xf037;" glyph-name="heatmap" d="M769.099 254.723c93.044 124.248 82.476 301.94-31.308 415.724-124.696 124.696-326.145 125.438-449.911 1.672s-123.024-325.214 1.672-449.911c113.99-113.99 292.079-124.403 416.379-30.825l-32.652 32.618c-106.25-76.114-255.582-65.943-351.712 30.222-106.888 106.888-107.543 279.528-1.448 385.623s278.753 105.457 385.64-1.431c95.957-95.923 106.284-244.859 30.653-351.074l32.687-32.618zM706.846 377.696c24.998 71.787 8.585 155.022-49.099 212.706-80.2 80.166-209.672 80.648-289.252 1.069s-79.097-209.051 1.069-289.252c57.512-57.512 140.402-73.994 212.051-49.341l-11.965 44.1c-56.426-20.774-122.507-8.31-168.072 37.29-62.34 62.34-62.719 163.055-0.828 224.947s162.607 61.512 224.947-0.828c45.755-45.755 58.15-112.18 37.049-168.762l44.1-11.93zM640.972 223.14c-8.93-8.965-18.86-6.241-22.171 5.999l-35.428 130.73c-3.327 12.258 3.913 19.498 16.137 16.171l130.765-35.428c12.24-3.345 14.93-13.24 5.999-22.171l-31.532-31.497c0.828-0.621 1.621-1.345 2.379-2.034l80.528-80.562c9.137-9.103 9.016-23.36 0.19-32.187-8.879-8.913-23.257-8.775-32.17 0.172l-80.562 80.528c-0.741 0.776-1.431 1.534-2.052 2.362l-32.084-32.084zM465.632 398.299c-26.717 26.717-26.871 69.879-0.345 96.406s69.689 26.372 96.406-0.345c26.717-26.717 26.871-69.879 0.345-96.406s-69.689-26.372-96.406 0.345zM512 911.237c123.748 0 240.066-48.186 327.559-135.678s135.661-203.828 135.678-327.559c0-123.748-48.168-240.083-135.661-327.576s-203.828-135.661-327.576-135.661c-123.748 0-240.049 48.168-327.559 135.678-87.493 87.493-135.678 203.845-135.678 327.559 0 123.748 48.186 240.066 135.678 327.559s203.811 135.678 327.559 135.678zM512 959.992c-131.041 0.017-262.064-49.979-362.039-149.953-199.949-199.949-199.949-524.129 0-724.077 99.974-99.974 231.015-149.953 362.039-149.953 131.058 0 262.064 49.979 362.039 149.953 199.949 199.949 199.949 524.129 0 724.077-99.974 99.974-230.998 149.97-362.039 149.953v0z" />
<glyph unicode="&#xf038;" glyph-name="tab_ongoal" d="M200.704 837.12h622.592v-573.44h77.824v655.36h-778.24v-655.36h77.824v573.44zM395.264 468.48c85.962 0 155.648 73.354 155.648 163.84s-69.686 163.84-155.648 163.84c-85.962 0-155.648-73.354-155.648-163.84s69.686-163.84 155.648-163.84v0z" />
<glyph unicode="&#xf039;" glyph-name="tab_offgoal" d="M473.088 837.12h-350.208v81.92h428.032v-655.36h-77.824v573.44zM745.472 591.36c85.962 0 155.648 73.354 155.648 163.84s-69.686 163.84-155.648 163.84c-85.962 0-155.648-73.354-155.648-163.84s69.686-163.84 155.648-163.84v0z" />
<glyph unicode="&#xf040;" glyph-name="tab_offside" d="M216.269 524.186h70.042l-93.389-342.426h-70.042l93.389 342.426zM333.005 960l-116.736-435.814 575.898-155.648 108.954 435.814-568.115 155.648zM747.203 445.184l-454.728 122.88 84.572 315.74 448.932-123.279-78.776-315.341zM558.694 665.283l-39.076-156.662-225.526 61.041 41.943 156.867 222.659-61.245zM823.276 758.671l-39.055-156.662-225.526 61.041 41.953 156.856 222.628-61.235z" />
<glyph unicode="&#xf041;" glyph-name="tab_goal" d="M625.162 658.678l54.323 88.986 79.759-46.643v-108.155l-84.47-30.208-49.613 96.020zM476.017 438.764h103.444l39.219-69.376-79.78-60.18-91.709 42.127 28.826 87.429zM300.882 693.78l95.805 47.401 77.363-71.619-77.353-104.571-99.379 34.15 3.564 94.638zM759.327 373.924c-57.928-72.653-147.19-119.194-247.327-119.194-68.588 0-132.065 21.832-183.89 58.952l3.604 53.709-74.476 75.162-34.488 0.512c-17.295 39.076-26.911 82.309-26.911 127.816 0 152.259 107.633 279.378 250.972 309.443l14.705-32.573 130.028-11.93 31.642 31.099c119.757-44.964 204.974-160.573 204.974-296.038 0-23.675-2.601-46.735-7.537-68.915h-35.994l-45.271-98.478 19.968-29.563zM512 181.76c214.907 0 389.12 174.213 389.12 389.12s-174.223 389.12-389.12 389.12c-214.897 0-389.12-174.213-389.12-389.12s174.223-389.12 389.12-389.12v0 0z" />
<glyph unicode="&#xf042;" glyph-name="tab_freekick" d="M589.435 491.643l37.171 57.815 54.559-30.31v-70.277l-57.805-19.63-33.925 62.403zM487.383 348.754h70.779l26.839-45.076-54.6-39.096-62.74 27.361 19.722 56.812zM367.555 514.447l65.556 30.802 52.931-46.541-52.931-67.942-67.994 22.19 2.437 61.491zM681.216 306.606c-39.619-47.196-100.7-77.435-169.216-77.435-46.93 0-90.358 14.182-125.819 38.298l2.458 34.898-50.964 48.845-23.593 0.328c-11.837 25.385-18.412 53.484-18.412 83.046 0 98.939 73.646 181.535 171.725 201.062l10.056-21.156 88.965-7.752 21.647 20.214c81.951-29.225 140.247-104.335 140.247-192.358 0-15.38-1.782-30.372-5.161-44.78h-24.617l-30.976-63.99 13.66-19.22zM512 181.76c147.046 0 266.24 113.193 266.24 252.826 0 139.643-119.204 252.836-266.24 252.836-147.026 0-266.24-113.193-266.24-252.836 0-139.633 119.204-252.826 266.24-252.826v0 0zM375.798 650.967c40.12 23.245 87.235 36.639 137.615 36.639s97.485-13.384 137.605-36.628v145.592h54.262l-191.867 163.43-191.857-163.43h54.241v-145.603z" />
<glyph unicode="&#xf043;" glyph-name="pointer2" d="M511.283 524.564c-85.76 0-171.069-21.791-213.944-65.393-10.721-10.895-21.443-21.801-20.828-41.933 9.595-314.726 181.606-459.428 181.606-459.428 18.893-16.087 32.143-21.78 53.166-21.811 21.156-0.020 35.973 6.236 54.016 21.811 0 0 160.952 148.982 182.221 459.418 0 19.405-10.721 31.037-21.443 41.933-42.865 43.602-129.044 65.403-214.794 65.403zM672.84 796.518c0 90.286-71.977 163.482-160.778 163.482s-160.778-73.196-160.778-163.482c0-90.296 71.977-163.492 160.778-163.492s160.778 73.196 160.778 163.492z" />
<glyph unicode="&#xf044;" glyph-name="haburger" d="M512 891.733c244.668 0 443.733-199.066 443.733-443.733s-199.066-443.733-443.733-443.733-443.733 199.066-443.733 443.733 199.066 443.733 443.733 443.733zM512 960c-282.761 0-512-229.239-512-512s229.239-512 512-512 512 229.239 512 512-229.239 512-512 512v0zM307.2 652.8h409.6c37.683 0 68.267-21.163 68.267-47.275v0c0-26.112-30.583-47.241-68.267-47.241h-409.6c-37.683 0-68.267 21.163-68.267 47.241v0c0 26.112 30.583 47.275 68.267 47.275zM307.2 495.275h409.6c37.683 0 68.267-21.163 68.267-47.275v0c0-26.112-30.583-47.275-68.267-47.275h-409.6c-37.683 0-68.267 21.163-68.267 47.275v0c0 26.112 30.583 47.275 68.267 47.275zM307.2 337.749h409.6c37.683 0 68.267-21.163 68.267-47.275v0c0-26.112-30.583-47.275-68.267-47.275h-409.6c-37.683 0-68.267 21.163-68.267 47.275v0c0 26.078 30.583 47.275 68.267 47.275z" />
<glyph unicode="&#xf045;" glyph-name="Temperature" d="M217.088 209.001v677.966c0 40.303 33.009 73.033 73.728 73.033 40.636 0 73.728-32.698 73.728-73.033v-677.966c44.075-25.294 73.728-72.569 73.728-126.715 0-80.791-66.018-146.286-147.456-146.286s-147.456 65.494-147.456 146.286c0 54.146 29.653 101.422 73.728 126.715v0zM532.477 886.857c-11.309 0-20.477-9.264-20.477-20.569v-32.005c0-11.36 9.113-20.569 20.477-20.569h327.686c11.309 0 20.477 9.264 20.477 20.569v32.005c0 11.36-9.113 20.569-20.477 20.569h-327.686zM532.477 667.429c-11.309 0-20.477-9.264-20.477-20.569v-32.005c0-11.36 9.113-20.569 20.477-20.569h327.686c11.309 0 20.477 9.264 20.477 20.569v32.005c0 11.36-9.113 20.569-20.477 20.569h-327.686zM532.477 448c-11.309 0-20.477-9.264-20.477-20.569v-32.005c0-11.36 9.113-20.569 20.477-20.569h327.686c11.309 0 20.477 9.264 20.477 20.569v32.005c0 11.36-9.113 20.569-20.477 20.569h-327.686z" />
<glyph unicode="&#xf046;" glyph-name="substitution" d="M330.455-43.254c0-11.448 9.339-20.746 21.084-20.746h320.901c11.653 0 21.094 9.206 21.094 20.746v592.681c0 11.448 9.482 20.736 21.105 20.736h134.154c11.663 0 14.889 6.922 7.178 15.514l-330.066 367.892c-7.69 8.571-20.132 8.591-27.843 0l-330.056-367.892c-7.68-8.571-4.434-15.514 7.178-15.514h134.164c11.653 0 21.105-9.206 21.105-20.736v-592.681z" />
<glyph unicode="&#xf047;" glyph-name="tab_3_points" d="M666.333 297.399c29.978-8.086 56.71-11.829 79.326-11.829 14.039 0 26.476 1.463 37.138 4.226-69.201-66.781-163.882-108.035-268.135-108.035-16.857 0-33.433 1.082-49.722 3.16-48.002 9.603-109.319 59.068-149.228 120.308-18.935 29.075-31.098 58.259-45.231 92.050-16.81 40.297-35.9 85.91-71.092 140.433 10.281 21.020 23.355 43.488 39.675 67.092 34.32-46.998 83.567-97.373 147.227-150.294 6.062-5.027 12.117-9.954 18.133-14.755h-70.999c-0.498-30.048 3.876-56.679 13.121-79.847s22.374-42.757 39.363-58.78c17.005-16.024 37.62-28.211 61.862-36.585 24.242-8.389 51.107-12.569 80.602-12.569 25.48 0 49.979 3.712 73.474 11.082 23.495 7.401 44.235 18.258 62.228 32.546 0.763 0.584 1.51 1.191 2.257 1.798v0zM554.873 341.494c-36.998 18.911-76.361 42.967-117.187 72.851 1.004-4.802 2.234-9.518 3.712-14.148 4.008-12.553 9.751-23.409 17.246-32.53 7.502-9.121 16.872-16.382 28.118-21.814 11.253-5.424 24.624-8.133 40.118-8.133 9.977 0.008 19.308 1.269 27.993 3.774v0zM356.609 671.794c-11.751 7.993-22.398 18.195-32.079 31.27 86.276 82.992 201.759 142.908 309.919 157.088 69.746 9.152 128.985-2.607 167.314-32.99 60.804-65.761 97.957-153.165 97.957-248.975 0-1.245-0.031-2.475-0.047-3.728-44.056 26.554-124.114 42.492-197.175 51.948 0.879 6.319 1.323 12.864 1.323 19.619 0 23.168-5.253 43.62-15.736 61.364-10.506 17.744-24.125 32.772-40.873 45.099-16.74 12.32-35.612 21.565-56.601 27.721-20.997 6.164-41.994 9.245-62.983 9.245-26.997 0-51.488-4.311-73.481-12.942s-40.858-20.826-56.601-36.601c-15.752-15.767-28.001-34.624-36.748-56.562-1.51-3.774-2.903-7.627-4.187-11.557v0zM451.118 643.972c20.577-1.844 43.138-2.623 67.948-3.479 10.436-0.366 21.269-0.739 32.476-1.222 9.751-0.412 27.838-1.3 51.029-2.957-0.467 21.145-7.954 37.449-22.468 48.897-15.004 11.829-32.25 17.744-51.722 17.744-27.005 0-47.371-8.747-61.123-26.25-7.502-9.541-12.88-20.46-16.141-32.733v0zM698.124 606.757c7.494-0.957 15.075-1.985 22.662-3.082 86.501-12.53 148.613-30.437 180.334-51.948-3.93-87.715-38.367-167.719-93.124-229.884l-0.031 0.016c-23.76-20.795-77.614-17.347-123.398-6.732 8.786 10.047 16.327 21.277 22.623 33.698 10.755 21.207 16.117 45.356 16.117 72.462 0 29.581-8.249 54.959-24.748 76.151-16.483 21.207-39.239 34.99-68.221 41.402v1.455c24.483 6.919 42.85 19.97 55.107 39.2 5.424 8.498 9.65 17.588 12.678 27.262v0zM600.501 616.43c-25.371 1.852-44.795 2.794-54.025 3.183-11.37 0.483-22.367 0.864-32.951 1.222-23.511 0.817-45.387 1.58-65.722 3.276-0.358-4.381-0.483-8.911-0.405-13.573h-101.226c0.498 13.541 2.016 26.468 4.529 38.795-15.946 9.183-30.242 21.557-42.967 38.359-20.507-20.507-39.262-42.328-55.745-65.108 33.604-46.726 82.836-97.272 147.064-150.683 68.75-57.123 129.997-94.362 180.591-118.604 2.739 1.883 5.378 3.985 7.946 6.249 16.491 14.53 24.748 34.367 24.748 59.496 0 19.728-3.868 34.764-11.619 45.099-7.743 10.351-17.619 17.892-29.628 22.553-11.993 4.685-25.106 7.385-39.363 8.133-14.234 0.747-27.861 1.128-40.858 1.128v73.933c11.502-0.996 23.752-0.996 36.748 0 12.989 0.981 25.114 3.821 36.359 8.498 11.238 4.677 20.499 11.463 27.744 20.328 4.078 4.965 6.996 10.872 8.779 17.713v0zM299.719 291.881c-19.145 29.41-31.892 59.932-45.387 92.253-15.744 37.745-33.534 80.244-65.201 130.449-25.783-57.123-30.157-102.237-23.682-128.075l-0.319-0.062c46.438-94.315 132.106-166.504 235.947-195.79-36.64 22.328-73.606 58.594-101.358 101.226v0zM237.927 642.735c16.499 22.46 35.075 43.986 55.442 64.298-19.907 30.367-25.791 62.104-17.394 94.393 15.285 58.765 73.684 105.864 113.008 131.811-80.984-27.005-149.757-80.322-195.829-149.586-6.335-40.803 8.942-88.284 44.772-140.916v0zM123.806 576.911c-0.615-8.21-0.926-16.506-0.926-24.849 0-41.862 7.821-81.941 22.055-118.938 1.004 25.596 8.864 59.247 27.238 98.362-20.95 31.791-34.959 45.083-48.368 45.426v0zM439.476 951.253c-7.961-4.265-34.297-18.88-62.275-40.826-30.437-23.884-69.115-61.582-80.517-105.522-7.448-28.655-2.467-56.959 14.755-84.229 33.091 31.744 70.524 60.353 111.179 84.727 67.341 40.406 141.453 67.512 208.669 76.322 53.138 6.957 100.704 2.296 138.62-13.036-66.773 56.866-153.702 91.311-248.648 91.311-28.079 0-55.434-3.043-81.785-8.747v0zM123.744 607.2c20.468-0.903 38.321-19.853 58.905-50.274 10.498 20.748 23.581 42.725 39.698 65.683-33.153 47.831-50.383 91.933-50.959 131.266-25.441-44.118-42.126-93.786-47.644-146.675v0z" />
<glyph unicode="&#xf048;" glyph-name="tab_2_points" d="M721.060 286.909c8.663-0.891 16.865-1.341 24.586-1.341 14.049 0 26.47 1.475 37.151 4.229-69.192-66.775-163.881-108.032-268.145-108.032-16.855 0-33.434 1.075-49.715 3.174-35.891 7.188-79.227 36.649-115.487 76.646h371.61v25.324zM535.46 351.78c-13.701 7.506-27.668 15.698-41.892 24.617-7.383-7.67-14.264-15.872-20.685-24.617h62.577zM415.795 430.853c-9.769 7.557-19.61 15.421-29.491 23.665-63.652 52.92-112.906 103.301-147.22 150.292-16.323-23.593-29.389-46.060-39.68-67.082 35.195-54.528 54.282-100.147 71.086-140.442 14.121-33.802 26.286-62.976 45.23-92.037 6.308-9.677 13.148-19.057 20.378-28.037 1.28 23.583 5.509 44.503 12.698 62.74 8.755 22.18 20.613 42.004 35.615 59.505 9.421 11.008 19.876 21.463 31.386 31.396v0zM360.387 669.332c-13.261 8.335-25.149 19.282-35.86 33.731 86.272 82.995 201.748 142.909 309.924 157.092 69.755 9.155 128.993-2.611 167.311-32.993 60.805-65.761 97.946-153.17 97.946-248.975 0-1.249-0.031-2.478-0.051-3.727-40.96 24.678-112.998 40.192-181.617 49.848 0.020 1.075 0.020 2.14 0.020 3.236 0 25.139-4.874 47.811-14.623 68.024-9.748 20.204-22.856 37.212-39.363 51.016-16.497 13.793-35.625 24.392-57.364 31.785-21.75 7.393-44.605 11.090-68.598 11.090-31.488 0-59.361-5.304-83.61-15.892s-44.36-25.385-60.365-44.36c-14.561-17.295-25.815-37.243-33.751-59.873v0zM459.715 643.282c18.227-1.352 37.96-2.038 59.351-2.775 10.455-0.369 21.279-0.737 32.481-1.219 10.844-0.461 31.949-1.495 58.9-3.543-2.591 17.459-9.585 31.611-20.961 42.455-14.735 14.049-33.618 21.074-56.607 21.074-15.493 0-28.611-3.574-39.363-10.721s-19.374-16.517-25.876-28.099c-3.062-5.458-5.704-11.182-7.926-17.172v0zM716.82 604.247c1.321-0.195 2.652-0.379 3.963-0.573 86.518-12.524 148.613-30.433 180.337-51.958-3.922-87.716-38.359-167.7-93.123-229.878l-0.041 0.010c-17.603-15.411-51.743-17.49-86.897-13.22v43.151h-138.23c-22.333 10.557-46.766 23.675-73.083 39.916 2.642 2.284 5.356 4.495 8.12 6.656 16.988 13.312 34.488 25.764 52.48 37.335s35.871 23.286 53.606 35.113c17.736 11.837 33.618 25.016 47.616 39.547 13.988 14.541 25.231 31.171 33.741 49.91 5.847 12.923 9.697 27.576 11.51 43.991v0zM611.533 615.593c-30.751 2.417-54.528 3.574-65.055 4.024-11.377 0.481-22.374 0.86-32.963 1.219-21.094 0.727-40.888 1.423-59.433 2.785-0.113-0.532-0.215-1.065-0.328-1.618-2.755-14.049-4.127-27.965-4.127-41.779h-101.97c-0.809 23.788 1.3 46.213 6.308 67.277-17.275 9.349-32.645 22.241-46.234 40.192-20.511-20.5-39.26-42.322-55.747-65.106 33.597-46.725 82.831-97.27 147.057-150.671 11.561-9.595 22.897-18.647 34.007-27.146 1.393 1.055 2.785 2.089 4.209 3.113 20.244 14.776 41.615 29.829 64.113 45.097 11.5 7.895 23.747 15.903 36.741 24.033s24.863 17.121 35.604 26.993c10.762 9.861 19.763 20.931 27.013 33.27 6.646 11.315 10.25 24.095 10.803 38.318v0zM299.715 291.886c-19.149 29.409-31.887 59.935-45.373 92.252-15.759 37.745-33.536 80.241-65.208 130.447-25.795-57.129-30.157-102.246-23.675-128.072l-0.317-0.082c46.438-94.3 132.096-166.492 235.95-195.779-36.649 22.323-73.615 58.604-101.376 101.233v0zM237.937 642.739c16.497 22.456 35.062 43.991 55.439 64.297-19.896 30.372-25.795 62.106-17.388 94.392 15.288 58.767 73.677 105.861 112.998 131.809-80.988-26.993-149.76-80.323-195.82-149.576-6.349-40.806 8.929-88.289 44.769-140.923v0zM123.802 576.916c-0.614-8.202-0.922-16.507-0.922-24.852 0-41.851 7.823-81.93 22.057-118.927 1.004 25.6 8.868 59.249 27.238 98.365-20.951 31.785-34.959 45.076-48.374 45.414v0zM439.47 951.26c-7.956-4.27-34.294-18.883-62.269-40.827-30.444-23.89-69.12-61.583-80.527-105.523-7.455-28.652-2.468-56.955 14.766-84.224 33.075 31.744 70.533 60.355 111.176 84.726 67.348 40.407 141.455 67.512 208.671 76.319 53.135 6.963 100.7 2.304 138.619-13.036-66.765 56.873-153.702 91.31-248.648 91.31-28.078 0-55.429-3.041-81.787-8.745v0zM123.74 607.206c20.47-0.901 38.318-19.855 58.9-50.289 10.496 20.746 23.583 42.732 39.69 65.7-33.157 47.831-50.381 91.935-50.954 131.267-25.436-44.114-42.117-93.788-47.636-146.678v0z" />
<glyph unicode="&#xf049;" glyph-name="tab_2missed" d="M301.568 254.813l77.681 96.86-74.383 92.754 17.961 14.705 71.301-88.904 69.55 86.723 17.971-14.684-72.643-90.604 77.926-97.147 75.704 94.372-95.15 118.641 17.971 14.694 92.037-114.77 22.016 27.433 15.258 57.559 22.333-6.031-70.164-264.366-21.873-0.010 0.092-0.133-30.003 0.338-28.242 35.205-28.375-35.41-29.952-0.246 43.469 54.2-77.926 97.157-77.691-96.86 43.735-54.508-29.839 0.123-28.754 35.86-28.672-35.738-29.819-0.102 43.602 54.374-80.077 99.86-4.024-5.212 39.516-148.91-23.91-0.041-55.398 208.773-0.164 0.205 0.092 0.082-14.694 55.337 22.323 6.031 13.486-50.821 22.446-27.986 90.706 117.238 18.217-14.367-94.003-121.477 80.364-100.198zM501.801 235.972l41.728-52.029 37.642 141.824-3.676 4.577-75.694-94.372zM122.88 500.993h539.382v-54.456h-539.382v54.456zM899.287 182.017h-225.997v48.712l103.803 108.923c13.158 15.053 22.835 28.477 29.051 40.284 6.205 11.817 9.308 22.067 9.308 30.781 0 12.39-3.144 22.282-9.421 29.655s-15.708 11.080-28.293 11.080c-11.233 0-20.060-4.762-26.491-14.285-6.441-9.513-9.646-21.647-9.646-36.424h-73.185l-0.451 1.341c-0.727 29.809 9.032 55.081 29.276 75.817 20.265 20.726 47.094 31.099 80.497 31.099 35.492 0 63.181-8.704 83.067-26.122s29.829-41.247 29.829-71.506c0-20.367-5.284-38.369-15.862-54.016-10.568-15.626-30.054-38.881-58.44-69.734l-43.684-46.715 0.645-1.331h125.983v-57.559zM238.131 749.303c52.695-63.314 91.894-144.62 106.271-230.758l10.711-64.225 19.436 62.177c36.577 116.992 77.609 191.693 145.469 211.968l-8.018 29.256c-79.34-23.695-125.030-115.036-148.9-180.879-20.234 71.608-55.951 137.984-101.028 192.143-49.746 59.761-100.362 89.876-139.192 89.876l0.287-26.87c46.316-4.004 71.24-30.167 114.964-82.688zM542.436 728.371c13.558-22.456 21.668-41.779 28.928-59.054 6.953-16.538 13.517-32.154 23.491-47.36 8.899-13.578 21.596-24.044 33.393-34.499-41.032 17.797-71.014 48.077-91.812 83.651l-2.724 5.315c-3.308 13.21-0.133 30.126 8.724 51.948zM616.881 938.209c-15.135-13.517-29.604-30.362-34.662-49.705-4.321-16.507-1.731-32.737 7.7-48.302-8.284-8.387-19.907-21.074-26.89-30.126-15.309 23.695-23.091 41.861-20.541 60.068 16.937 26.46 44.104 51.415 71.229 66.826zM567.453 775.895c17.562-22.835 41.882-47.165 72.397-72.356 97.352-80.343 167.014-86.6 186.061-86.6 2.181 0 4.332 0.072 6.42 0.205-34.806-29.061-77.128-45.261-123.976-46.080-12.38 0.625-16.374 0.809-25.098 2.673-23.501 4.741-53.668 29.082-73.462 59.249-9.431 14.397-15.575 28.989-22.733 46.049-8.458 20.070-18.002 42.783-35.43 69.949 4.485 8.878 9.789 17.91 15.821 26.911zM792.61 908.831c24.709 0 47.237-5.448 61.676-16.701 27.884-33.372 45.66-75.1 46.828-119.030-47.852 23.706-152.228 29.194-173.466 30.085-5.243 0.225-10.332 0.41-15.237 0.573l-1.372 0.041c-44.032 1.505-73.626 2.529-94.065 27.392 43.889 40.95 100.946 69.325 153.354 76.145 7.639 0.993 15.145 1.495 22.282 1.495zM602.033 818.831c24.771-29.102 60.467-30.321 105.216-31.877 5.396-0.184 10.998-0.379 16.794-0.625 10.844-0.461 49.234-2.396 88.566-8.049 41.789-6.011 72.305-14.469 88.515-24.504-2.765-42.209-19.62-81.265-44.964-112.589-5.059-4.321-15.391-5.673-27.535-5.673-12.329 0-27.884 2.427-42.67 6.666-29.399 8.438-76.595 28.488-134.38 76.196-31.304 25.836-55.736 50.504-72.714 73.38 6.912 9.308 14.684 18.381 23.173 27.075zM512.167 763.535c4.291-2.314 9.544-8.202 16.384-18.289-5.663-12.298-7.588-22.917-9.513-31.693-3.727 13.814-7.045 28.037-7.045 42.465 0.010 2.499 0.061 5.007 0.174 7.516zM711.591 960c38.492 0 74.66-13.65 106.189-34.826-8.602 1.628-16.742 3.574-26.429 3.574-7.844 0-16.036-0.553-24.371-1.628-34.847-4.536-73.247-18.483-108.093-39.25-19.415-11.561-37.458-25.006-53.729-39.997-6.154 11.551-7.68 23.45-4.557 35.389 5.55 21.238 23.788 41.001 38.84 52.736 13.158 10.26 25.897 17.961 31.078 20.736 13.23 2.796 26.153 3.267 39.68 3.267zM529.36 846.008c3-16.425 11.694-35.328 24.515-54.19-5.929-8.53-11.254-17.132-15.882-25.661-7.383 10.097-15.165 18.708-24.801 21.064 2.376 20.234 7.24 39.434 15.585 57.457z" />
<glyph unicode="&#xf050;" glyph-name="tab_3missed" d="M379.249 351.668l-74.383 92.754 17.961 14.705 71.301-88.904 69.55 86.723 25.754-6.912-80.425-98.365 77.926-97.147 75.704 94.372-95.15 118.641 17.971 14.694 92.037-114.77 22.016 27.433 15.258 57.559 22.333-6.031-70.164-264.366-21.873-0.010-29.911 0.215-28.242 35.205-28.375-35.41-29.952-0.246 43.469 54.2-77.926 97.157-77.691-96.86 43.735-54.508-29.839 0.123-28.754 35.86-28.672-35.738-29.819-0.102 43.602 54.374-80.077 99.86-4.024-5.222 39.516-148.91-23.91-0.041-70.154 264.397 22.323 6.031 13.486-50.821 22.446-27.986 90.706 117.238 18.217-14.367-94.003-121.467 80.364-100.198 77.67 96.84zM501.801 235.966l41.728-52.029 37.642 141.824-3.676 4.577-75.694-94.372zM122.88 500.988h539.382v-54.456h-539.382v54.456zM743.24 376.305h34.929c13.332 0 23.593 3.564 30.761 10.691 7.178 7.117 10.762 17.029 10.762 29.676 0 10.035-3.215 18.483-9.667 25.324-6.441 6.84-15.811 10.25-28.109 10.25-9.667 0-18.166-2.765-25.487-8.284-7.322-5.54-10.988-12.667-10.988-21.402h-72.059l-0.44 1.311c-0.881 25.324 9.155 45.834 30.095 61.553 20.951 15.708 46.356 23.572 76.237 23.572 34.714 0 62.484-7.895 83.272-23.675 20.797-15.79 31.212-38.154 31.212-67.113 0-14.397-4.516-27.668-13.517-39.834-9.001-12.155-21.064-21.647-36.147-28.477 17.152-6.257 30.536-15.749 40.212-28.477 9.667-12.739 14.5-27.965 14.5-45.732 0-29.092-11.213-51.978-33.608-68.639-22.415-16.66-51.046-24.975-85.914-24.975-30.034 0-56.289 7.823-78.766 23.46-22.477 15.626-33.352 38.287-32.635 67.983l0.451 1.311h72.489c0-10.189 4.004-18.739 11.991-25.641 7.977-6.912 17.684-10.373 29.112-10.373 13.025 0 23.429 3.635 31.201 10.906 7.762 7.281 11.643 16.445 11.643 27.515 0 15.421-4.065 26.665-12.196 33.71-8.12 7.055-19.579 10.588-34.376 10.588h-34.929v54.774zM238.131 749.297c52.695-63.314 91.894-144.62 106.271-230.758l10.711-64.225 19.436 62.177c36.577 116.992 77.609 191.508 145.469 211.784l-8.94 29.573c-79.34-23.695-124.129-115.159-147.988-180.992-20.234 71.608-55.951 137.984-101.028 192.143-49.736 59.75-100.352 89.856-139.182 89.856l0.287-26.86c46.316-4.014 71.24-30.177 114.964-82.698zM542.436 728.376c13.558-22.456 21.668-41.779 28.928-59.054 6.953-16.538 13.517-32.154 23.491-47.36 8.899-13.578 21.596-24.044 33.393-34.499-41.032 17.797-71.014 48.077-91.812 83.651l-2.724 5.315c-3.308 13.199-0.133 30.116 8.724 51.948zM616.881 938.214c-15.135-13.517-29.604-30.362-34.662-49.705-4.321-16.517-1.731-32.748 7.7-48.312-8.284-8.387-19.907-21.074-26.89-30.126-15.309 23.695-23.091 41.861-20.541 60.068 16.937 26.46 44.104 51.415 71.229 66.826zM567.453 775.9c17.562-22.835 41.882-47.165 72.397-72.356 97.352-80.343 167.014-86.6 186.061-86.6 2.181 0 4.332 0.072 6.42 0.205-34.806-29.061-77.128-45.261-123.976-46.080-12.38 0.625-16.374 0.809-25.098 2.673-23.501 4.741-53.668 29.082-73.462 59.249-9.431 14.397-15.575 28.989-22.733 46.049-8.458 20.070-18.002 42.783-35.43 69.949 4.485 8.878 9.789 17.9 15.821 26.911zM792.61 908.836c24.709 0 47.237-5.448 61.676-16.701 27.884-33.372 45.66-75.1 46.828-119.030-47.852 23.706-152.228 29.194-173.466 30.085-5.243 0.225-10.332 0.41-15.237 0.573l-1.372 0.041c-44.032 1.505-73.626 2.529-94.065 27.392 43.889 40.95 100.946 69.325 153.354 76.145 7.639 0.993 15.145 1.495 22.282 1.495zM602.033 818.826c24.771-29.102 60.467-30.321 105.216-31.877 5.396-0.184 10.998-0.379 16.794-0.625 10.844-0.461 49.234-2.396 88.566-8.049 41.789-6.011 72.305-14.469 88.515-24.504-2.765-42.209-19.62-81.265-44.964-112.589-5.059-4.321-15.391-5.673-27.535-5.673-12.329 0-27.884 2.427-42.67 6.666-29.399 8.438-76.595 28.488-134.38 76.196-31.304 25.836-55.736 50.504-72.714 73.38 6.912 9.318 14.684 18.391 23.173 27.075zM512.167 763.53c4.291-2.314 9.544-8.202 16.384-18.289-5.663-12.298-7.588-22.917-9.513-31.693-3.727 13.814-7.045 28.037-7.045 42.465 0.010 2.509 0.061 5.007 0.174 7.516zM711.591 960.005c38.492 0 74.66-13.65 106.189-34.826-8.602 1.628-16.742 3.574-26.429 3.574-7.844 0-16.036-0.553-24.371-1.628-34.847-4.536-73.247-18.483-108.093-39.25-19.415-11.561-37.458-25.006-53.729-39.997-6.154 11.551-7.68 23.45-4.557 35.389 5.55 21.238 23.788 41.001 38.84 52.736 13.158 10.26 25.897 17.961 31.078 20.736 13.23 2.796 26.153 3.267 39.68 3.267zM529.36 846.013c3-16.425 11.694-35.328 24.515-54.19-5.929-8.53-11.254-17.132-15.882-25.661-7.383 10.097-15.165 18.708-24.801 21.064 2.376 20.234 7.24 39.434 15.585 57.457z" />
<glyph unicode="&#xf051;" glyph-name="switch_to" d="M112.251 441.324c0 23.818 0 24.361 0 47.636-149.432-71.465-219.269-337.244 248.32-480.174 0-23.818 0-66.908 0-66.908 0-5.673 3.604-7.598 8.192-4.178l155.894 115.968c4.516 3.369 4.741 9.001 0.338 12.718l-156.57 132.239c-4.342 3.666-7.854 2.007-7.854-3.666v-63.734c0 0-422.369 47.104-248.32 310.098zM655.892 107.407c90.839 23.009 427.725 119.532 254.966 333.906 0 23.818 0 23.818 0 47.636 275.487-174.152-8.182-453.018-254.966-476.826 0 23.818 0 71.465 0 95.283z" />
<glyph unicode="&#xf052;" glyph-name="Rugby_icon" d="M29.143-34.857c64.42-64.43 468.593-36.219 735.273 230.461 266.68 266.67 294.871 670.863 230.441 735.263-64.41 64.43-468.603 36.229-735.273-230.451-266.68-266.68-294.871-670.853-230.441-735.273zM325.448 634.552c107.622 107.643 250.696 180.961 398.244 214.446 60.416 13.711 136.468 18.842 167.188 18.842 40.96 0 51.2-10.24 39.598-45.619-12.718-33.587-27.914-67.86-45.742-103.782-62.792-126.464-145.623-249.108-250.962-358.82-109.548-114.022-244.654-208.579-377.774-280.259-61.44-30.72-81.92-40.96-121.313-49.705-14.602 0.788-42.527 18.985-42.527 49.705-1.915 45.056 5.161 96.543 18.862 156.959 33.495 147.538 106.762 290.611 214.426 398.234zM300.319 47.022c-9.585-2.181-19.067-4.076-28.436-5.857 146.156 73.933 282.501 168.612 395.459 286.218 103.782 108.063 186.235 228.137 249.876 352.184-1.331-6.574-2.724-13.199-4.219-19.876-33.505-147.538-106.824-290.611-214.415-398.244-107.643-107.643-250.726-180.951-398.264-214.426z" />
<glyph unicode="&#xf053;" glyph-name="RU_try" d="M122.88 497.695l778.24-213.535v94.577l-777.114 208.271-1.126-89.313zM255.273 708.475c0-43.295 144.159-169.615 321.976-169.615s321.966 126.331 321.956 169.615c0.010 43.284-144.148 169.605-321.956 169.605-177.838 0-321.976-126.321-321.976-169.605v0 0zM577.249 833.823c71.762 0 143.903-23.429 204.257-61.757 24.719-15.688 51.794-39.516 62.034-49.848 13.66-13.752 13.66-20.644-2.017-28.631-15.432-7.014-31.918-13.425-49.848-19.497-63.089-21.391-131.604-34.775-203.305-36.239-74.537-1.495-151.101 12.124-219.382 32.768-30.72 10.322-40.97 13.763-57.016 24.064-4.608 5.171-7.844 20.664 2.396 30.986 14.377 15.79 33.905 30.71 58.624 46.397 60.344 38.318 132.465 61.778 204.257 61.757v0 0zM372.982 644.864c-3.922 2.488-7.721 5.038-11.438 7.588 73.38-24.269 150.405-38.257 227.277-36.7 70.615 1.444 138.138 14.080 200.724 34.376-2.632-1.761-5.315-3.523-8.028-5.263-60.365-38.308-132.506-61.747-204.257-61.768-71.793 0-143.933 23.439-204.278 61.768v0 0z" />
<glyph unicode="&#xf054;" glyph-name="RU_penaltyGoal" d="M609.864 795.085c-5.335 0.768-10.762 1.249-16.312 1.393h-307.087v-115.446c0 0 23.286-0.389 30.771-0.164 111.698-8.161 153.027-154.235 276.316-150.221 73.728 1.894 132.925 60.692 132.925 132.925-0.010 66.836-50.668 122.122-116.613 131.512v0zM593.019 571.617c-92.088-7.967-125.665 121.907-255.345 135.434v48.466l175.831-0.010-0.584-48.589c0 0 19.876 49.51 80.108 48.568 51.538-1.475 92.856-42.045 92.856-91.924-0.010-49.838-41.329-90.429-92.867-91.945v0zM582.226 815.544c0.061 0.061 0.164 0.082 0.215 0.133l79.401 65.434c7.393 6.103 7.895 16.568 1.147 23.368l-2.365 2.365c-6.758 6.789-17.172 6.257-23.235-1.157l-65.075-79.831c-2.294-2.806-2.099-7.137 0.471-9.708 2.488-2.499 6.605-2.755 9.441-0.604v0zM536.003 837.222c0.061-0.686 0.256-1.352 0.532-1.976 1.106-2.642 3.717-4.557 6.615-4.557 3.082 0 5.878 2.13 6.82 5.038 0.164 0.492 0.276 0.993 0.338 1.495l1.28 13.158 8.837 89.539c0.942 9.595-6.072 17.336-15.616 17.336h-3.318c-9.595 0-16.568-7.772-15.626-17.336l8.755-88.75 1.382-13.947zM504.074 816.056l0.492-0.399c2.826-2.324 7.107-2.089 9.646 0.481 2.56 2.56 2.744 6.902 0.461 9.697l-65.065 79.831c-6.062 7.424-16.466 7.946-23.224 1.157l-2.345-2.365c-6.758-6.789-6.246-17.275 1.147-23.368l78.889-65.034zM779.059 960h70.861v-757.76h-70.861v221.307h-534.129v-221.307h-70.851v757.76h70.851v-466.012h534.129v466.012z" />
<glyph unicode="&#xf055;" glyph-name="RU_DropGoal" d="M597.612 633.796c0-14.246-11.347-25.795-25.344-25.795s-25.344 11.549-25.344 25.795c0 14.246 11.347 25.795 25.344 25.795s25.344-11.549 25.344-25.795zM575.033 576.493c0-14.24-11.338-25.784-25.324-25.784s-25.324 11.544-25.324 25.784c0 14.24 11.338 25.784 25.324 25.784s25.324-11.544 25.324-25.784zM546.873 519.19c0-14.24-11.338-25.784-25.324-25.784s-25.324 11.544-25.324 25.784c0 14.24 11.338 25.784 25.324 25.784s25.324-11.544 25.324-25.784zM640.303 616.132l-37.212-43.233 101.294-27.648 38.205 42.977-102.287 27.904zM589.574 553.105l-37.202-43.244 101.294-27.628 38.216 42.967-102.308 27.904zM765.087 860.725c-5.151 0.225-10.004 1.26-18.33-3.052-10.854-5.663-24.187-26.194-36.608-44.78-3.85-8.008-2.693-5.294-6.574-15.585-5.12-14.049-59.73-57.201-84.931-62.269-80.333-15.636-94.618-59.74-97.413-71.424-11.172-37.478-92.477-205.814-121.088-255.365-7.905-13.158-10.762-21.975-10.179-36.915 7.137-60.529 53.074-87.347 99.922-88.422 38.81 43.684 325.919 370.995 399.493 455.055-33.823 77.271-99.369 115.098-124.293 122.757v0zM477.118 312.721c-31.007 4.27-54.026 21.637-59.013 61.051 0.010-0.43 0.010-0.819 0.031-1.27l-0.174 2.253c0.031-0.328 0.102-0.645 0.154-0.983-0.184 7.516 0.922 10.977 6.083 19.569 32.44 56.156 112.794 224.328 124.017 261.97 1.925 7.823 5.376 14.838 12.749 22.446 12.452 12.872 32.604 23.224 62.976 29.133 32.655 6.574 96.768 55.009 106.045 80.425 0.553 1.505 2.048 5.499 2.028 5.437 0.43 1.137 1.434 4.045 1.434 4.045 0.399 0.604 3.451 5.181 4.352 6.513 2.222 3.328 3.963 5.888 5.601 8.294 4.813 6.984 8.622 12.124 11.889 15.933 2.642 3.082 5.048 5.12 5.048 5.12 35.205-13.394 77.189-51.62 95.171-89.938-147.026-168.008-351.959-400.579-378.388-429.998v0zM898.064 689.102c7.045 15.718 2.898 38.339-22.825 75.981-55.286-62.966-356.577-405.371-419.359-476.498 23.982-10.23 43.356-10.476 53.248-8.735 16.66 3.758 31.324 19.517 39.526 24.945 0.092-0.082 5.601-3.789 5.601-3.789 9.103-8.643 23.409-8.141 31.846 1.075l20.449 22.313c8.468 9.247 7.956 23.747-1.106 32.328l-3.983 3.768c3.922 4.28 7.997 8.724 12.216 13.353l3.185-3.021c9.103-8.622 23.347-8.090 31.805 1.126l20.449 22.303c8.468 9.257 7.967 23.726-1.147 32.369l-3.348 3.185c58.214 64.164 126.259 139.766 173.814 192.707l2.826-2.683c9.103-8.632 23.357-8.090 31.795 1.126l20.449 22.292c8.479 9.247 7.977 23.716-1.157 32.399l-3.379 3.205c5.673 6.39 8.888 9.984 9.093 10.25v0zM873.345 703.418c0-1.475-327.045-384.164-349.911-382.73-0.205-0.205 340.152 387.297 347.832 396.247 2.355-4.987 2.079-10.578 2.079-13.517v0zM203.592 318.013c36.137-9.718 174.1 83.692 214.19 233.923 40.090 150.221-32.881 300.38-69.018 310.098-36.147 9.728-174.1-83.681-214.19-233.902-40.090-150.241 32.87-300.39 69.018-310.118v0 0zM171.52 618.179c16.179 60.631 52.009 116.316 97.618 158.7 18.668 17.357 44.667 34.867 55.593 41.196 14.572 8.448 20.316 6.902 23.45-8.12 2.376-14.612 4.014-29.993 5.048-46.5 3.635-58.112-0.635-118.989-15.575-179.886-15.565-63.304-44.186-124.938-76.81-177.981-15.544-23.644-20.726-31.519-32.942-42.772-5.356-2.724-19.016-1.976-25.324 8.991-9.933 15.688-17.992 35.543-25.518 59.945-18.412 59.587-21.729 125.798-5.54 186.429v0 0zM283.228 403.169c-2.97-2.765-5.949-5.386-8.919-7.956 36.803 56.545 65.853 118.467 81.889 183.767 14.715 59.986 19.384 119.88 16.548 177.295 0.881-2.621 1.741-5.284 2.58-7.977 18.381-59.597 21.678-125.809 5.519-186.44-16.189-60.631-52.019-116.306-97.618-158.689v0 0z" />
<glyph unicode="&#xf056;" glyph-name="RU_Conversion" d="M848.865 709.898v250.102h-70.205v-157.993c24.064-23.439 49.132-54.907 70.205-92.109zM517.345 442.388h-267.94v-240.148h-70.205v757.76h70.205v-451.215h257.864c1.188-22.845 4.731-45.056 10.076-66.396zM703.478 245.903c41.288 0 161.802 124.549 161.802 278.19s-120.525 278.2-161.812 278.2c-41.298 0-161.812-124.559-161.812-278.2 0-153.651 120.515-278.19 161.823-278.19v0 0zM583.844 524.083c-0.010 62.013 22.354 124.355 58.911 176.497 14.961 21.361 37.693 44.749 47.544 53.596 13.138 11.796 19.702 11.796 27.32-1.731 6.687-13.343 12.8-27.587 18.606-43.069 20.398-54.528 33.157-113.715 34.56-175.667 1.434-64.399-11.551-130.56-31.263-189.553-9.841-26.552-13.117-35.4-22.948-49.265-4.925-3.994-19.722-6.789-29.563 2.058-15.063 12.421-29.297 29.286-44.257 50.637-36.557 52.163-58.921 114.483-58.911 176.497v0 0zM764.283 347.597c-2.376-3.389-4.803-6.656-7.24-9.871 23.153 63.396 36.506 129.946 35.011 196.362-1.372 61.020-13.435 119.368-32.788 173.445 1.69-2.284 3.359-4.588 5.018-6.943 36.547-52.152 58.911-114.493 58.931-176.486 0-62.024-22.374-124.355-58.931-176.507v0 0zM601.764 277.361c0 0 51.528-58.45 103.066-58.45 51.528 0 103.055 58.45 103.055 58.45v-73.062h-206.121v73.062z" />
<glyph unicode="&#xf057;" glyph-name="Stop" d="M249.554 775.68h524.891c36.028 0 65.234-29.433 65.234-65.234v-524.891c0-36.028-29.433-65.234-65.234-65.234h-524.891c-36.028 0-65.234 29.433-65.234 65.234v524.891c0 36.028 29.433 65.234 65.234 65.234z" />
<glyph unicode="&#xf058;" glyph-name="play" d="M301.496 766.802l453.673-283.904c30.781-19.261 30.73-50.534 0-69.765l-453.673-283.904c-30.771-19.261-55.736-6.277-55.736 29.143v579.287c0 35.359 25.006 48.364 55.736 29.143z" />
<glyph unicode="&#xf059;" glyph-name="pause" d="M249.794 775.68h131.196c36.16 0 65.474-29.433 65.474-65.234v-524.891c0-36.028-29.056-65.234-65.474-65.234h-131.196c-36.16 0-65.474 29.433-65.474 65.234v524.891c0 36.028 29.056 65.234 65.474 65.234zM643.010 775.68h131.196c36.16 0 65.474-29.433 65.474-65.234v-524.891c0-36.028-29.056-65.234-65.474-65.234h-131.196c-36.16 0-65.474 29.433-65.474 65.234v524.891c0 36.028 29.056 65.234 65.474 65.234z" />
<glyph unicode="&#xf060;" glyph-name="forward" d="M0 737.659c0 35.359 24.064 48.364 53.617 29.143l436.47-283.904c29.614-19.261 29.553-50.524 0-69.755l-436.47-283.914c-29.614-19.261-53.617-6.267-53.617 29.143v579.287zM565.34 766.802l436.47-283.904c29.614-19.261 29.563-50.524 0-69.755l-436.47-283.914c-29.614-19.261-53.617-6.267-53.617 29.143v579.287c0 35.359 24.064 48.364 53.617 29.143z" />
<glyph unicode="&#xf061;" glyph-name="Backward" d="M1024 737.659c0 35.359-24.064 48.364-53.617 29.143l-436.46-283.904c-29.624-19.261-29.563-50.524 0-69.755l436.46-283.914c29.624-19.261 53.617-6.267 53.617 29.143v579.287zM458.66 766.802l-436.47-283.904c-29.614-19.261-29.563-50.524 0-69.755l436.47-283.914c29.614-19.261 53.617-6.267 53.617 29.143v579.287c0 35.359-24.064 48.364-53.617 29.143z" />
<glyph unicode="&#xf062;" glyph-name="More" d="M512 960c-282.767 0-512-229.233-512-512s229.233-512 512-512 512 229.233 512 512-229.233 512-512 512zM782.438 255.836c0-11.284-9.144-20.521-20.408-20.521h-505.313c-11.162 0-20.408 9.175-20.408 20.521v53.504c0 11.274 9.134 20.5 20.408 20.5h505.313c11.162 0 20.408-9.175 20.408-20.5v-53.504zM782.438 413.368c0-11.274-9.144-20.511-20.408-20.511h-505.313c-11.162 0-20.408 9.175-20.408 20.511v53.504c0 11.274 9.134 20.511 20.408 20.511h505.313c11.162 0 20.408-9.185 20.408-20.511v-53.504zM782.438 570.911c0-11.274-9.144-20.511-20.408-20.511h-505.313c-11.162 0-20.408 9.175-20.408 20.511v53.504c0 11.274 9.134 20.511 20.408 20.511h505.313c11.162 0 20.408-9.185 20.408-20.511v-53.504z" />
<glyph unicode="&#xf063;" glyph-name="tracker" d="M512 960c-282.767 0-512-229.233-512-512 0-282.757 229.233-512 512-512s512 229.243 512 512c0 282.767-229.233 512-512 512zM670.484 618.67c-36.803 0-68.157 23.286-80.138 55.921l-152.412-55.48c0.614-4.127 0.932-8.346 0.932-12.646 0-29.583-15.053-55.644-37.919-70.953l65.925-134.564c23.859 14.377 51.814 22.641 81.705 22.641 87.532 0 158.484-70.943 158.484-158.464 0-87.542-70.953-158.484-158.484-158.484-87.521 0-158.474 70.943-158.474 158.484 0 44.216 18.104 84.183 47.299 112.916l-70.605 144.108c-4.321-0.676-8.755-1.024-13.261-1.024-47.135 0-85.33 38.205-85.33 85.33 0 47.135 38.205 85.33 85.33 85.33 29.839 0 56.105-15.319 71.352-38.523l160.614 58.46c3.912 43.5 40.468 77.588 84.992 77.588 47.124 0 85.33-38.205 85.33-85.33s-38.226-85.309-85.34-85.309z" />
<glyph unicode="&#xf064;" glyph-name="LMT_iconz-12" d="M727.921 323.871v248.259h119.675v51.784c0 22.18-18.145 40.315-40.315 40.315h-590.561c-22.18 0-40.325-18.145-40.325-40.315v-351.836c0-22.18 18.145-40.315 40.325-40.315h283.761v98.458c-59.873 5.816-106.844 56.402-106.844 117.78s46.971 111.964 106.844 117.78v98.447h23.040v-98.447c59.873-5.806 106.844-56.402 106.844-117.78s-46.971-111.964-106.844-117.78v-98.458h283.761c22.18 0 40.315 18.145 40.315 40.315v51.784h-119.675zM296.079 323.871h-119.675v23.040h96.635v202.179h-96.635v23.040h119.675v-248.259zM750.961 549.089h96.635v-202.179h-96.635v202.179zM416.676 448c0-48.66 36.669-88.842 83.804-94.556v189.112c-47.145-5.714-83.804-45.896-83.804-94.556zM523.52 542.556v-189.123c47.145 5.714 83.804 45.896 83.804 94.556s-36.659 88.852-83.804 94.566z" />
<glyph unicode="&#xf065;" glyph-name="LMT_iconz-11" d="M416.676 533.453l-121.764-66.98c-0.696-0.43-1.475-0.748-2.171-1.188l-51.261-28.18 14.285-5.99c-0.102-0.123-0.225-0.236-0.328-0.369l-13.957 5.837v-27.75c-10.199-19.517-16.445-41.165-16.445-64.389 0-80.65 69.059-146.043 154.245-146.043 58.153 0 108.165 30.822 134.451 75.807l120.596-50.534 175.196 96.358v48.783l-392.847 164.639zM401.224 401.234l-65.833 31.928 110.469 61.635 67.441-30.822-112.077-62.74zM405.606 612.997l-23.962 84.613h76.093l-23.972-84.613zM295.752 568.228l-81.275 45.783 52.541 55.040 49.51-79.063zM515.615 590.612l49.48 78.316 52.797-54.794-80.118-46.531z" />
<glyph unicode="&#xf066;" glyph-name="LMT_iconz-10" d="M843.479 499.2c32.051 15.78 38.349 27.679 38.349 47.278 0 58.839-165.489 106.547-369.623 106.547s-369.623-47.698-369.623-106.547c0-19.61 6.298-31.508 38.349-47.288 62.515 51.261 192.85 90.214 331.284 90.214 138.414 0 268.749-38.943 331.264-90.204zM338.637 452.393c60.436-11.284 102.216-12.452 173.558-12.452 73.994 0 115.2 1.577 172.995 12.37-57.231 17.521-99.021 26.982-172.995 26.982s-116.316-9.38-173.558-26.9zM213.228 483.83c17.183-6.799 37.079-12.995 59.249-18.442 63.857 25.303 147.282 45.814 239.718 45.814 92.447 0 175.872-20.511 239.718-45.814 22.17 5.448 42.066 11.643 59.249 18.442-61.932 43.448-174.060 73.185-298.977 73.185-124.908 0-237.036-29.737-298.957-73.185zM512.195 393.4c-153.774 0-308.992 29.307-371.251 85.893l45.947-193.638c0-50.053 86.221-92.805 207.821-109.865l-12.319 69.612c-1.188 6.728 0.42 16.916 3.574 22.63l30.392 54.979c3.154 5.714 10.383 10.394 16.046 10.394h168.356c5.663 0 12.872-4.69 16.015-10.414l29.481-53.75c3.144-5.724 4.7-15.913 3.471-22.63l-12.82-69.765c117.78 17.715 200.612 59.761 200.612 108.82l45.548 193.29c-62.525-56.371-217.416-85.555-370.872-85.555zM581.949 181.862c-1.137-9.073-8.233-16.507-15.79-16.507h-107.919c-7.557 0-14.664 7.424-15.79 16.507l-9.615 77.087c-1.137 9.073 4.116 16.507 11.674 16.507h135.383c7.557 0 12.81-7.424 11.674-16.507l-9.615-77.087zM478.413 708.465c0-12.25-8.17-22.18-18.248-22.18s-18.248 9.93-18.248 22.18c0 12.25 8.17 22.18 18.248 22.18s18.248-9.93 18.248-22.18zM530.442 708.465c0-12.25-8.17-22.18-18.248-22.18s-18.248 9.93-18.248 22.18c0 12.25 8.17 22.18 18.248 22.18s18.248-9.93 18.248-22.18zM582.482 708.465c0-12.25-8.17-22.18-18.248-22.18s-18.248 9.93-18.248 22.18c0 12.25 8.17 22.18 18.248 22.18s18.248-9.93 18.248-22.18zM198.625 662.252c2.427-11.889-3.533-23.921-13.312-26.87s-19.681 4.291-22.108 16.179c-2.427 11.889 3.533 23.921 13.312 26.87s19.681-4.291 22.108-16.179zM249.129 677.499c2.427-11.889-3.533-23.921-13.312-26.87s-19.681 4.291-22.108 16.179c-2.427 11.889 3.533 23.921 13.312 26.87s19.671-4.291 22.108-16.179zM299.622 692.746c2.427-11.889-3.533-23.921-13.312-26.87s-19.681 4.291-22.108 16.179c-2.427 11.889 3.533 23.921 13.312 26.87 9.789 2.949 19.681-4.301 22.108-16.179zM825.774 662.252c-2.427-11.889 3.533-23.921 13.312-26.87s19.681 4.291 22.108 16.179-3.533 23.921-13.312 26.87c-9.789 2.949-19.681-4.291-22.108-16.179zM775.27 677.499c-2.427-11.889 3.533-23.921 13.312-26.87s19.681 4.291 22.108 16.179c2.427 11.889-3.533 23.921-13.312 26.87s-19.681-4.291-22.108-16.179zM724.767 692.746c-2.427-11.889 3.533-23.921 13.312-26.87s19.681 4.291 22.108 16.179c2.427 11.889-3.533 23.921-13.312 26.87s-19.681-4.301-22.108-16.179z" />
<glyph unicode="&#xf067;" glyph-name="LMT_iconz-09" d="M489.339 422.707h-288v30.72h288c27.423 0 49.705 22.292 49.705 49.705s-22.292 49.705-49.705 49.705-49.705-22.292-49.705-49.705h-30.72c0 44.339 36.086 80.425 80.425 80.425s80.425-36.086 80.425-80.425-36.086-80.425-80.425-80.425zM717.097 553.513c-19.149 0-37.714-5.233-53.914-14.879-16.486 80.876-88.166 141.926-173.844 141.926-50.504 0-97.956-21.545-131.369-58.429-12.943 28.334-41.39 48.169-74.516 48.169-45.271 0-82.084-36.813-82.084-82.053h30.72c0 28.293 23.040 51.333 51.364 51.333 28.293 0 51.333-23.040 51.333-51.333s-23.040-51.333-51.333-51.333h-82.115v-30.72h82.115c44.657 0 80.947 35.912 81.879 80.353l2.243-1.516c27.392 40.561 72.899 64.799 121.774 64.799 80.876 0 146.698-65.823 146.698-146.698h30.72c0 0.481-0.072 0.963-0.072 1.444l0.645-0.717c13.711 12.206 31.375 18.934 49.766 18.934 41.277 0 74.854-33.597 74.854-74.885s-33.567-74.885-74.854-74.885h-515.768v-30.72h98.191c26.522 0 48.087-21.565 48.087-48.087 0-26.491-21.576-48.056-48.087-48.056-26.491 0-48.056 21.565-48.056 48.056h-30.72c0-43.438 35.338-78.776 78.776-78.776 43.469 0 78.807 35.338 78.807 78.776 0 18.176-6.441 34.744-16.814 48.087h355.574c58.204 0 105.574 47.37 105.574 105.605s-47.38 105.605-105.574 105.605z" />
<glyph unicode="&#xf068;" glyph-name="LMT_iconz-08" d="M796.539 647.68h-135.096v-57.457h18.575v-30.72h-61.235v30.72h11.94v57.457h-240.445v-57.457h14.182v-30.72h-61.235v30.72h16.333v57.457h-132.096c-21.002 0-38.021-17.019-38.021-38.021v-323.318c0-21.002 17.019-38.021 38.021-38.021h132.096v32.85h30.72v-32.85h240.445v32.85h30.72v-32.85h135.096c21.002 0 38.021 17.019 38.021 38.021v323.318c0 21.002-17.019 38.021-38.021 38.021zM220.754 322.345h-30.72v30.72h30.72v-30.72zM220.754 559.503h-30.72v30.72h30.72v-30.72zM359.557 557.65h30.72v-61.44h-30.72v61.44zM359.557 465.49h30.72v-61.44h-30.72v61.44zM312.607 322.345h-61.235v30.72h61.235v-30.72zM312.607 559.503h-61.235v30.72h61.235v-30.72zM404.46 322.345h-14.182v-10.455h-30.72v10.455h-16.333v30.72h16.333v20.265h30.72v-20.265h14.182v-30.72zM630.723 557.65h30.72v-61.44h-30.72v61.44zM630.723 465.49h30.72v-61.44h-30.72v61.44zM496.312 322.345h-61.235v30.72h61.235v-30.72zM496.312 559.503h-61.235v30.72h61.235v-30.72zM588.165 322.345h-61.235v30.72h61.235v-30.72zM588.165 559.503h-61.235v30.72h61.235v-30.72zM680.018 322.345h-18.575v-10.455h-30.72v10.455h-11.94v30.72h11.94v20.265h30.72v-20.265h18.575v-30.72zM771.871 322.345h-61.235v30.72h61.235v-30.72zM771.871 559.503h-61.235v30.72h61.235v-30.72zM833.219 322.345h-30.72v30.72h30.72v-30.72zM833.219 559.503h-30.72v30.72h30.72v-30.72z" />
<glyph unicode="&#xf069;" glyph-name="LMT_iconz-07" d="M427.264 615.035v52.285c0 10.824 4.526 19.61 15.36 19.61s15.36-8.786 15.36-19.61v-52.285c0-10.824-4.526-19.61-15.36-19.61-10.824 0-15.36 8.786-15.36 19.61zM565.422 544.594c4.516 0 9.032 1.72 12.483 5.171l54.323 54.323c6.892 6.881 6.892 18.063 0 24.955-6.892 6.871-18.063 6.881-24.955-0.010l-54.323-54.323c-6.892-6.881-6.892-18.063 0-24.955 3.441-3.441 7.946-5.161 12.472-5.161zM310.6 332.37l-54.323-54.323c-6.892-6.881-6.892-18.063 0-24.955 3.451-3.43 7.956-5.161 12.483-5.161s9.032 1.72 12.483 5.171l54.323 54.323c6.892 6.881 6.892 18.063 0 24.955-6.902 6.871-18.074 6.881-24.965-0.010zM287.734 436.562c0 9.738-7.905 17.644-17.644 17.644h-77.076c-9.748 0-17.644-7.905-17.644-17.644s7.905-17.644 17.644-17.644h77.076c9.738 0.010 17.644 7.905 17.644 17.644zM310.6 549.765c3.451-3.451 7.956-5.171 12.483-5.171 4.516 0 9.032 1.72 12.483 5.161 6.892 6.892 6.892 18.074 0 24.955l-54.323 54.323c-6.881 6.881-18.053 6.881-24.955 0.010-6.892-6.892-6.892-18.074 0-24.955l54.313-54.323zM848.64 324.905c0-59.679-50.504-108.052-112.804-108.052-5.13 0-10.148 0.44-15.094 1.075-28.273-18.903-67.482-30.628-110.848-30.628-38.564 0-73.789 9.308-101.018 24.648-4.854-0.594-9.769-1.014-14.797-1.014-63.375 0-114.77 49.070-115.087 109.701-42.189 23.45-70.84 68.454-70.84 120.054 0 75.725 61.604 137.308 137.318 137.308 53.35 0 99.574-30.638 122.296-75.192 17.562 9.554 37.827 15.084 59.464 15.084 55.685 0 102.441-36.188 116.347-85.32 58.675-3.82 105.062-50.493 105.062-107.663zM385.731 358.175c15.882 42.691 58.327 73.308 108.349 73.308 5.509 0 10.885-0.502 16.189-1.219 5.028 19.333 15.084 36.721 28.836 50.831-15.677 36.219-51.732 61.635-93.635 61.635-56.259 0-102.021-45.773-102.021-102.031 0-33.925 16.722-63.969 42.281-82.524z" />
<glyph unicode="&#xf070;" glyph-name="LMT_iconz-06" d="M535.593 378.716v321.649c0 16.896-13.824 30.72-30.72 30.72h-9.308c-16.896 0-30.72-13.824-30.72-30.72v-321.649c-43.295-14.735-74.486-55.654-74.486-103.936 0-60.672 49.183-109.865 109.865-109.865 60.672 0 109.865 49.183 109.865 109.865 0 48.282-31.201 89.19-74.496 103.936zM633.59 635.617h107.571c8.489 0 15.36 6.871 15.36 15.36s-6.871 15.36-15.36 15.36h-107.571c-8.489 0-15.36-6.871-15.36-15.36s6.871-15.36 15.36-15.36zM741.161 587.438h-107.571c-8.489 0-15.36-6.871-15.36-15.36s6.871-15.36 15.36-15.36h107.571c8.489 0 15.36 6.871 15.36 15.36s-6.871 15.36-15.36 15.36zM741.161 508.529h-107.571c-8.489 0-15.36-6.871-15.36-15.36s6.871-15.36 15.36-15.36h107.571c8.489 0 15.36 6.871 15.36 15.36s-6.871 15.36-15.36 15.36z" />
<glyph unicode="&#xf071;" glyph-name="LMT_iconz-05" d="M577.362 412.232c62.28 0.502 129.7 28.406 182.989 81.695 94.31 94.31 109.189 232.899 33.157 308.92-76.032 76.032-214.61 61.153-308.92-33.157-53.289-53.289-81.193-120.709-81.695-182.989v0c-0.143-1.403-16.579-124.344-82.647-216.607-6.81 0.399-13.742-1.894-18.913-7.066l-112.2-112.2c-9.595-9.595-9.595-25.303 0-34.908l17.449-17.449c9.595-9.595 25.303-9.595 34.908 0l112.2 112.2c5.171 5.171 7.465 12.114 7.055 18.913 92.273 66.068 215.204 82.493 216.617 82.647v0zM519.496 734.781c75.069 75.069 182.323 89.938 239.104 33.157s41.902-164.045-33.157-239.104-182.323-89.938-239.104-33.157-41.912 164.035 33.157 239.104zM451.43 460.769c8.438-8.438 17.684-15.688 27.515-21.903-24.453-7.209-51.671-16.865-79.165-29.757 12.892 27.494 22.559 54.723 29.757 79.165 6.205-9.83 13.455-19.077 21.893-27.505zM760.238 175.155c-9.892-1.311-19.517-0.184-32.338 3.297-2.693 0.737-5.376 1.567-8.090 2.478l-8.878 3.451c-4.116 1.905-8.028 3.994-11.991 6.103l-3.482 1.843c-9.626 5.1-19.907 10.424-30.884 14.848-12.052 4.844-22.712 7.741-32.604 8.878-10.803 1.26-21.658-0.051-30.433-3.942-8.837-3.86-17.132-10.936-24.023-20.449l-5.96-9.318-0.051 0.020-0.932-1.802c-0.666-1.188-1.26-2.386-1.833-3.594-2.304-4.895-3.942-9.953-4.905-15.053-1.812-9.513-1.341-20.142 1.403-30.751 2.243-8.673 5.96-17.664 11.377-27.484 3.942-7.148 8.428-14.264 14.1-22.364 4.608-6.564 8.878-12.165 12.462-16.742 1.802-2.355 3.42-4.352 4.823-6.072l10.824-13.158-0.154-0.205c3.686-0.276 7.383-0.563 11.141-0.563 77.292 0 140.657 60.15 146.125 136.079-4.485-2.775-9.728-4.69-15.698-5.499zM570.726 64.389c-7.096 7.772-13.107 15.729-18.381 24.33-6.717 11.028-11.858 22.559-15.258 34.294-4.291 14.971-5.315 30.351-2.949 44.513 1.249 7.762 3.533 15.473 6.799 22.917 0.819 1.864 1.669 3.686 2.621 5.489l2.662 4.905c0.348 0.666 0.901 1.577 1.485 2.519l1.485 2.427c1.085 1.7 2.15 3.277 3.215 4.854 5.11 7.24 10.301 13.128 15.913 18.063 6.154 5.509 13.097 10.035 20.582 13.445 7.229 3.297 15.094 5.509 23.368 6.595 7.875 0.983 15.616 0.85 23.112 0.031 12.759-1.434 26.112-5.11 40.806-11.233 12.339-5.13 23.47-11.141 33.679-16.845l2.98-1.669c3.799-2.15 7.496-4.229 10.885-5.888l6.011-2.447c2.079-0.758 4.229-1.485 6.339-2.15 8.233-2.56 15.299-3.738 20.664-3.154 2.836 0.297 4.229 1.055 4.577 1.28 1.198 0.727 1.987 1.423 2.765 2.417 1.772 2.253 3.062 5.489 4.106 8.079l3.912 8.95c-15.698 64.082-73.462 111.831-142.305 111.831-80.876 0-146.678-65.802-146.678-146.678 0-64.707 42.168-119.665 100.434-139.090-4.434 3.932-8.847 7.885-12.831 12.216z" />
<glyph unicode="&#xf072;" glyph-name="LMT_iconz-04" d="M593.859 534.815l183.388-25.917-132.127-129.792 32.020-182.415-164.27 85.545-163.594-86.815 30.597 182.661-133.12 128.758 183.173 27.341 81.326 166.4z" />
<glyph unicode="&#xf073;" glyph-name="LMT_iconz-03" d="M674.847 461.332h-148.265v106.158h148.255v-106.158zM495.77 598.303v80.794h-268.196c-21.064 0-38.134-17.080-38.134-38.144v-42.65h306.33zM836.526 598.303v42.65c0 21.064-17.080 38.144-38.134 38.144h-271.811v-80.794h309.944zM836.526 324.383v243.108h-130.867v-243.108h130.867zM674.847 430.52h-148.265v-106.127h148.255v106.127zM495.77 293.571h-306.33v-38.533c0-21.064 17.080-38.144 38.134-38.144h268.196v76.677zM526.582 293.571v-76.677h271.8c21.064 0 38.134 17.080 38.134 38.144v38.533h-309.934zM316.662 324.383v243.108h-127.222v-243.108h127.222zM347.484 324.383h148.285v106.138h-148.285v-106.138zM495.77 567.491h-148.285v-106.158h148.285v106.158z" />
<glyph unicode="&#xf074;" glyph-name="LMT_iconz-02" d="M393.021 174.848h238.080l1.178 31.416-23.992 24.924 4.065 8.94-58.511 46.971-4.997 210.78 8.049 2.734c16.691 5.652 32.84 14.5 47.944 26.214l7.987 6.195 63.058-61.583 22.118 22.641-28.928 28.221 16.937 6.441c34.447 13.158 60.314 33.475 76.872 60.385 33.833 54.958 15.852 118.129 15.084 120.791l-3.369 11.213h-525.046l-3.389-11.284c-0.788-2.642-19.067-65.198 15.104-120.73 16.486-26.778 42.158-47.022 76.329-60.16l17.050-6.554-29.624-28.293 21.852-22.886 64.614 61.676 7.895-6.103c14.705-11.397 30.392-20.060 46.633-25.733l7.916-2.755-4.27-211.323-58.194-47.155 4.27-9.452-23.951-24.197 1.239-31.334zM627.323 543.816l20.265 27.638c22.252 30.331 39.69 68.168 50.452 109.394l2.243 8.663h50.094l0.901-10.588c1.669-19.497 0.317-48.087-15.647-73.656-14.95-23.992-40.325-41.431-75.428-51.773l-32.881-9.677zM396.82 543.816l-32.881 9.677c-35.103 10.332-60.477 27.771-75.448 51.773-15.944 25.62-17.306 54.19-15.626 73.656l0.901 10.588h50.094l2.243-8.663c10.762-41.226 28.201-79.063 50.452-109.394l20.265-27.638z" />
<glyph unicode="&#xf075;" glyph-name="LMT_iconz-01" d="M599.45 686.684c0-48.478-39.299-87.777-87.777-87.777s-87.777 39.299-87.777 87.777c0 48.478 39.299 87.777 87.777 87.777s87.777-39.299 87.777-87.777zM512.399 341.955c-15.473 0-15.821-12.698-15.821-12.698s0-141.23 0-163.922c0-30.269-25.938-43.807-48.63-43.807s-47.872 14.367-47.872 43.54 0 283.453 0 283.453 0.532 10.711-12.032 10.711c-14.254 0-12.78-10.332-12.78-10.332v-74.056c0 0-2.427-31.416-40.653-31.416-35.369 0-37.478 30.618-37.478 30.618s0-5.253 0 95.058c0 100.311 102.943 104.008 102.943 104.008h223.846c0 0 102.943-3.697 102.943-104.008s0-95.058 0-95.058-2.109-30.618-37.478-30.618c-38.216 0-40.653 31.416-40.653 31.416v74.056c0 0 1.475 10.332-12.78 10.332-12.564 0-12.032-10.711-12.032-10.711s0-254.269 0-283.453-25.18-43.54-47.872-43.54c-22.692 0-48.63 13.537-48.63 43.807 0 22.692 0 163.922 0 163.922s-0.348 12.698-15.821 12.698h0.799z" />
<glyph unicode="&#xf076;" glyph-name="LMT_iconz-13" d="M819.517 534.446c-19.149 0-37.714-5.233-53.914-14.879-16.486 80.876-88.166 141.926-173.844 141.926-50.504 0-97.956-21.545-131.369-58.429-11.52-16.292-12.114-15.206-23.777-32.809l21.535-25.17 11.837 20.879c27.392 40.561 72.899 64.799 121.774 64.799 80.876 0 146.698-65.823 146.698-146.698h30.72c0 0.481-0.072 0.963-0.072 1.444l0.645-0.717c13.711 12.206 31.375 18.934 49.766 18.934 41.277 0 74.854-33.597 74.854-74.885s-33.567-74.885-74.854-74.885h-343.603c6.646 15.616 11.131 32.328 13.548 49.684h102.298c44.339 0 80.425 36.086 80.425 80.425s-36.086 80.425-80.425 80.425-80.425-36.086-80.425-80.425h30.72c0 27.423 22.292 49.705 49.705 49.705s49.705-22.292 49.705-49.705-22.292-49.705-49.705-49.705h-100.372c-1.915 106.793-88.914 192.799-196.147 192.799-108.421 0-196.321-87.9-196.321-196.321 0-108.431 87.9-196.332 196.321-196.332 68.68 0 129.034 35.328 164.116 88.74h360.161c58.204 0 105.574 47.37 105.574 105.605s-47.38 105.595-105.574 105.595zM275.855 310.927l-92.764 72.356 37.796 48.425 45.302-35.338 99.154 121.651 47.636-38.82-137.124-168.274z" />
<glyph unicode="&#xf077;" glyph-name="f034" d="M865.381 811.52c-197.967 197.967-518.945 197.967-716.912 0s-197.967-518.945 0-716.912c197.967-197.956 518.945-197.956 716.912 0 197.967 197.977 197.967 518.945 0 716.912zM780.045 179.955c-8.81-8.81-23.025-8.669-31.866 0.172l-79.75 79.74c-0.74 0.74-1.419 1.511-2.038 2.322l-31.764-31.764c-8.841-8.851-18.665-6.174-21.95 5.951l-35.069 129.44c-3.295 12.136 3.883 19.284 15.999 16.009l129.45-35.080c12.136-3.285 14.782-13.109 5.941-21.95l-31.186-31.197c0.811-0.618 1.582-1.288 2.322-2.028l79.75-79.75c9.013-9.023 8.912-23.106 0.162-31.866zM396.815 563.185c-61.278-61.268-60.913-160.991 0.821-222.725 45.127-45.117 110.551-57.456 166.415-36.905l11.832-43.667c-70.93-24.414-153.012-8.080-209.95 48.868-79.365 79.365-79.842 207.578-1.054 286.355s206.99 78.311 286.355-1.054c57.131-57.121 73.383-139.538 48.645-210.62l-43.697 11.842c20.906 56.006 8.658 121.775-36.651 167.074-61.724 61.744-161.447 62.109-222.715 0.831zM556.488 403.512c-26.269-26.269-69.003-26.107-95.455 0.345-26.452 26.462-26.614 69.196-0.345 95.455 26.259 26.269 68.993 26.107 95.445-0.345 26.462-26.462 26.624-69.186 0.355-95.455zM761.461 261.693l-32.322 32.322c74.864 105.168 64.613 252.614-30.365 347.592-105.827 105.827-276.774 106.466-381.81 1.419-105.046-105.036-104.418-275.983 1.419-381.81 95.181-95.181 243.043-105.269 348.251-29.909l32.312-32.302c-123.073-92.667-299.393-82.346-412.256 30.517-123.468 123.458-124.208 322.895-1.653 445.45s321.982 121.815 445.45-1.653c112.66-112.67 123.123-288.586 30.973-411.628z" />
<glyph unicode="&#xf078;" glyph-name="HB_Technical-fault" d="M122.88 652.757v-204.448c0 0 44.29-0.772 57.465-0.363 196.716-14.451 269.497-273.137 486.672-266.039 129.857 3.364 234.102 107.474 234.102 235.425s-104.245 232.061-234.102 235.348l-544.138 0.077zM174.080 494.080v112.64l346.027-0.032-1.080-97.34c0 0 45.327 99.123 156.813 97.34 95.441-2.788 179.2-95.171 179.2-189.364 0-94.185-91.855-186.269-187.288-189.136-205.172-9.448-232.412 242.627-493.672 265.892zM594.61 960c-17.145 0-29.674-13.845-27.993-30.873l18.156-182.902c0.638-6.428 6.335-11.65 12.825-11.65v0c6.444 0 12.179 5.136 12.825 11.65l18.156 182.902c1.704 17.051-10.872 30.873-27.978 30.873h-5.992zM808.214 870.176c-12.133 12.117-30.787 11.176-41.651-2.062l-116.635-142.153c-4.101-4.996-3.767-12.709 0.817-17.292v0c4.56-4.553 12.249-4.981 17.316-0.825l142.332 116.51c13.261 10.864 14.156 29.511 2.055 41.597l-4.234 4.226zM388.26 870.176c12.133 12.117 30.795 11.176 41.651-2.062l116.658-142.153c4.094-4.996 3.751-12.709-0.833-17.292v0c-4.56-4.553-12.242-4.981-17.316-0.825l-142.332 116.503c-13.269 10.864-14.156 29.511-2.062 41.605l4.234 4.226z" />
<glyph unicode="&#xf079;" glyph-name="HB_goalkeeper_safe" d="M440.667 473.209l-59.605 43.891-59.61-43.891 22.77-71.025h73.679l22.766 71.025zM621.598 453.574c0-134.662-107.688-243.832-240.536-243.832-132.857 0-240.541 109.17-240.541 243.832 0 134.666 107.684 243.836 240.541 243.836 132.848 0 240.536-109.17 240.536-243.836zM360.197 248.2c6.849-0.713 13.808-1.076 20.865-1.076 7.26 0 14.445 0.39 21.497 1.143l10.828 16.135 37.144 55.401-30.026 58.556h-78.883l-30.848-60.134 49.423-70.025zM233.771 310.991c25.061-26.587 57.072-46.406 93.049-56.463l-35.844 50.802-57.204 5.661zM180.347 418.364c5.049-29.8 16.403-57.404 32.604-81.374l77.048-7.628 32.528 63.419-0.641 2.039-23.579 73.553-64.597 15.799-0.336-0.412-53.026-65.396zM205.501 558.289c-17.854-30.701-28.107-66.494-28.107-104.715v-1.331l37.834 46.643-9.727 59.403zM296.043 641.24c-27.647-12.894-51.956-31.884-71.247-55.257l12.8-78.25 68.134-16.673 61.458 45.267-1.026 72.638-70.119 32.274zM434.477 652.858c-17.022 4.67-34.934 7.167-53.415 7.167-18.486 0-36.397-2.496-53.411-7.167l53.411-24.592 53.415 24.592zM537.319 585.983c-19.282 23.373-43.595 42.363-71.238 55.257l-76.38-35.161 0.937-66.592 65.76-48.427 68.121 16.673 12.8 78.25zM584.721 452.243v1.331c0 38.222-10.249 74.014-28.098 104.715l-9.736-59.403 37.834-46.643zM549.598 337.632c15.975 23.821 27.17 51.201 32.179 80.733l-53.384 65.808-64.579-15.799-0.805-2.532-22.775-71.020-0.641-2.039 32.436-63.226 77.569 8.076zM528.348 310.991l-57.204-5.661-35.849-50.802c7.68 2.142 15.196 4.733 22.474 7.745 26.865 11.075 50.873 27.801 70.579 48.718zM353.624 695.782c9.015 1.043 18.155 1.628 27.436 1.628 21.093 0 41.55-2.776 61.045-7.953-0.015 69.061-0.037 175.178 0.015 202.502-23.454 35.637-75.766 27.519-88.97-3.181 0.533-39.524 0.637-129.367 0.474-192.996v0zM825.479 693.021c-38.22-20.077-86.039-72.25-98.066-79.745-16.016-5.034-22.263 9.768-21.352 17.496 0.207 16.438 0 209.937 0 250.751-11.361 36.478-71.207 44.070-88.614 1.913 1.014-109.403 0.355-225.392 0.836-247.96-26.296-20.67-41.55-6.812-44.274 0 0.348 33.597-0.067 265.824 0 301.521-39.981 42.037-79.689 14.878-88.015 0.878-0.429-52.188-0.17-191.451-0.052-264.841 80.303-39.531 135.656-123.012 135.656-219.615 0-82.506-40.41-155.393-102.203-199.553 6.158-0.038 12.375-0.128 18.718-0.345 40.781 4.509 143.975 46.006 229.407 231.672 33.609 52.218 49.758 85.184 101.433 139.008 30.323 51.085-13.085 76.766-43.475 68.821v0zM310.985 686.861c-0.437 42.802-0.918 96.491-0.77 115.697-27.236 35.705-70.778 26.724-88.422 0-0.192-66.953-0.022-110.64 0.052-166.325 25.49 22.86 55.761 40.326 89.14 50.627v0z" />
</font>
</defs>
</svg>
