
<?xml version="1.0" standalone="no"?>
<!DOCTYPE svg PUBLIC "-//W3C//DTD SVG 1.1//EN" "http://www.w3.org/Graphics/SVG/1.1/DTD/svg11.dtd" >
<svg xmlns="http://www.w3.org/2000/svg">
<metadata>Generated by IcoMoon</metadata>
<defs>
<font id="icomoon" horiz-adv-x="1024">
<font-face units-per-em="1024" ascent="960" descent="-64" />
<missing-glyph horiz-adv-x="1024" />
<glyph unicode="&#x20;" horiz-adv-x="0" d="" />
<glyph unicode="&#xe600;" glyph-name="SOCC_L01" d="M511.953 816.361c-203.078 0-368.314-165.283-368.314-368.407 0-203.078 165.236-368.314 368.314-368.314 203.124 0 368.407 165.236 368.407 368.314 0 203.124-165.283 368.407-368.407 368.407zM759.11 276.34l-2.327-32.442c-50.129-60.044-121.996-101.097-203.497-111.663l-24.39 7.215-38.074-9.123c-87.319 5.725-164.957 46.499-219.089 108.637l9.914-4.841 81.548-35.188v81.408l-117.434 128.512-49.617-2.141c-1.769 13.545-2.979 27.276-2.979 41.332 0 175.988 142.801 318.836 318.697 318.836 176.128 0 318.79-142.801 318.79-318.836 0-16.477-1.629-32.442-4.049-48.221l-67.491-123.485zM529.268 394.473l-55.017-136.239 116.457-77.126 129.024 77.126-45.801 132.887zM395.962 718.708l-126.231-95.651 12.893-110.685h120.087l80.849 126.185zM669.324 711.168l-55.017-66.188 74.007-127.907 104.448-8.378-18.525 117.248z" />
<glyph unicode="&#xe601;" glyph-name="SOCC_L02" d="M436.503 180.364c-32.070 0-58.182 26.112-58.182 58.182v407.273h-162.909v-535.273h349.091v69.818h-128zM448.14 785.455h349.091v-535.273h-349.091v535.273z" />
<glyph unicode="&#xe602;" glyph-name="SOCC_L03" d="M894.836 597.969l-171.473 171.473-171.427-171.427 1.676-4.049h85.83v-459.497h167.843v459.497h85.969zM420.864 302.033v454.516h-167.796v-454.516h-87.133l-1.024-3.444 172.079-172.032 170.868 170.822-1.536 4.655z" />
<glyph unicode="&#xe603;" glyph-name="SOCC_L04" d="M740.119 189.952c0-25.6-20.945-46.545-46.545-46.545h-325.818c-25.6 0-46.545 20.945-46.545 46.545v558.545c0 25.6 20.945 46.545 46.545 46.545h325.818c25.6 0 46.545-20.945 46.545-46.545v-558.545z" />
<glyph unicode="&#xe604;" glyph-name="SOCC_L05" d="M659.456 250.927c-28.812 176.035-168.588 315.671-344.529 344.483v166.028h-116.364v-568.692c0-32.116 26.065-58.182 58.182-58.182h568.692v116.364h-165.981zM314.927 477.277c111.942-25.74 200.564-114.362 226.351-226.351h-226.351v226.351z" />
<glyph unicode="&#xe605;" glyph-name="SOCC_L06" d="M530.804 338.758v0zM877.754 465.687l57.158 206.941-289.745 80.058zM645.167 752.733l-331.124 91.462-114.362-413.929 1.024-0.279-100.771-360.82 62.045-17.315 100.817 361.007 557.754-154.112 57.158 206.988zM566.737 569.577l-261.306 72.751 38.54 149.039 261.306-72.751-38.54-149.039zM569.903 530.106l261.073-71.168-40.355-147.409-261.073 71.168 40.355 147.409z" />
<glyph unicode="&#xe606;" glyph-name="SOCC_L07" d="M402.339 707.491l35.142 124.183h-111.663l35.188-124.183zM377.251 590.755l-257.117-142.196v-40.727c-14.941-28.625-24.157-60.416-24.157-94.487 0-118.365 101.329-214.295 226.351-214.295 85.318 0 158.767 45.242 197.306 111.244l176.966-74.147 257.117 141.405v71.587l-576.465 241.617zM354.583 396.707l-96.628 46.871 162.118 90.438 98.956-45.242-164.445-92.067zM672.535 709.167l-77.498 80.431-72.611-114.921 32.535-33.792zM230.26 673.745l-72.657 116.038-77.126-80.803 119.296-67.165z" />
<glyph unicode="&#xe607;" glyph-name="SOCC_L08" d="M911.267 597.969c0 160.861-130.839 291.7-291.7 291.7-160.815 0-291.607-130.886-291.607-291.7 0-133.865 90.81-246.691 213.969-280.809-7.82-40.774-56.925-73.542-114.781-73.542h-178.409v117.527l-181.201-181.201 181.201-181.155v105.146h178.409c135.401 0 246.272 92.625 255.116 209.315 130.793 28.858 229.004 145.408 229.004 284.719zM813.428 436.364c-39.703-47.523-96.582-80.058-161.094-88.39l-19.316 5.725-30.161-7.261c-69.12 4.561-130.607 36.817-173.428 86.016l7.866-3.863 64.559-27.881v64.512l-92.951 101.702-39.331-1.676c-1.396 10.752-2.327 21.597-2.327 32.721 0 139.357 113.059 252.416 252.323 252.416 139.45 0 252.416-113.105 252.416-252.416 0-13.033-1.303-25.693-3.212-38.167l-53.574-97.745-1.769-25.693zM633.251 555.613l-43.52-107.892 92.207-61.021 102.121 61.021-36.259 105.239zM527.732 812.311l-99.933-75.729 10.193-87.645h95.092l64 99.887zM744.169 806.353l-43.567-52.41 58.601-101.236 82.711-6.703-14.662 92.905z" />
<glyph unicode="&#xe608;" glyph-name="SOCC_L09" d="M345.553 547.654l-114.502-2.653-36.259-105.193 102.121-61.068 92.207 61.068zM540.812 640.977l10.24 87.645-99.98 75.776-69.306-63.488 64-99.933zM278.249 746.031l-43.567 52.41-83.084-67.491-14.662-92.858 82.711 6.703zM911.267 172.032l-181.201 181.201v-117.527h-178.409c-57.856 0-106.961 32.721-114.781 73.542 123.159 34.118 213.969 146.897 213.969 280.809 0 160.815-130.793 291.7-291.607 291.7s-291.7-130.886-291.7-291.7c0-139.264 98.211-255.907 228.957-284.672 8.89-116.689 119.761-209.315 255.116-209.315h178.409v-105.146l181.248 181.108zM163.607 454.097l-53.574 97.745c-1.908 12.521-3.165 25.135-3.165 38.214 0 139.311 112.966 252.416 252.416 252.416 139.311 0 252.369-113.105 252.369-252.416 0-11.124-0.977-22.016-2.374-32.721l-39.284 1.676-92.951-101.748v-64.465l64.559 27.881 7.866 3.817c-42.822-49.199-104.308-81.455-173.428-86.016l-30.208 7.261-19.316-5.725c-64.512 8.378-121.391 40.867-161.094 88.436l-1.815 25.647z" />
<glyph unicode="&#xe609;" glyph-name="SOCC_L10" d="M579.956 519.82l31.465 139.404h141.684l-252.276 252.276-252.276-252.276h139.823l31.558-139.916c-109.103-34.444-188.416-136.564-188.416-256.884 0-148.48 120.785-269.265 269.265-269.265s269.312 120.785 269.312 269.265c0 120.925-80.151 223.511-190.138 257.396zM681.472 136.937l-1.676-23.692c-36.631-43.892-89.181-73.914-148.759-81.641l-17.827 5.306-27.834-6.703c-63.86 4.189-120.599 33.978-160.163 79.407l7.261-3.537 59.625-25.786v59.532l-85.83 93.929-36.305-1.536c-1.303 9.914-2.188 19.921-2.188 30.208 0 128.652 104.401 233.053 233.007 233.053 128.745 0 233.053-104.401 233.053-233.053 0-12.009-1.21-23.738-2.932-35.235l-49.431-90.252zM513.443 223.279l-40.215-99.561 85.132-56.413 94.301 56.413-33.466 97.14zM416.023 460.335l-92.3-69.958 9.449-80.896h87.785l59.066 92.253zM615.843 454.842l-40.215-48.407 54.086-93.463 76.335-6.191-13.498 85.783z" />
<glyph unicode="&#xe60a;" glyph-name="SOCC_L11" d="M777.123 807.284c0-57.119-46.305-103.424-103.424-103.424s-103.424 46.305-103.424 103.424c0 57.119 46.305 103.424 103.424 103.424s103.424-46.305 103.424-103.424zM449.676 807.284c0-57.119-46.305-103.424-103.424-103.424s-103.424 46.305-103.424 103.424c0 57.119 46.305 103.424 103.424 103.424s103.424-46.305 103.424-103.424zM1002.543 544.954l-166.167 166.121c-25.786-64.745-88.716-110.685-162.676-110.685-72.89 0-135.308 44.497-161.792 107.706l-1.257 1.257c-0.745-1.815-1.815-3.444-2.607-5.26l-80.71-80.663-87.785-97.885 65.35-59.439 50.362 50.316 38.447-42.589-95.279-96.023-143.965 136.285 81.641 90.298c-72.704 0.652-126.464 38.819-153.321 101.935l-161.327-161.373 84.713-84.713 94.58 94.58 44.497-354.397 192.884-7.82c9.356-122.368 110.825-219.415 235.52-219.415 130.932 0 237.428 106.496 237.428 237.382 0 73.123-33.932 137.821-86.109 181.388l5.818-2.281-8.751 166.353 95.837-95.837 84.666 84.759zM879.104 210.572c0-10.612-1.071-20.945-2.607-31.092l-43.613-79.546-1.489-20.899c-32.303-38.679-78.615-65.164-131.119-71.959l-15.732 4.655-24.529-5.865c-56.273 3.677-106.31 29.975-141.172 69.958l6.423-3.119 52.55-22.668v52.457l-75.683 82.804-31.977-1.35c-1.117 8.751-1.908 17.548-1.908 26.624 0 113.431 92.020 205.452 205.405 205.452 113.524 0 205.452-92.020 205.452-205.452zM684.823 176.081l-35.468-87.785 75.078-49.711 83.13 49.711-29.51 85.644zM598.947 385.071l-81.361-61.673 8.285-71.308h77.405l52.084 81.315zM739.607 337.548l47.709-82.432 67.305-5.399-11.916 75.59-67.631 54.924z" />
<glyph unicode="&#xe60b;" glyph-name="SOCC_L12" d="M543.884 154.065l-100.864 401.361c-3.724 14.895-16.058 35.607-27.369 45.987l-99.654 91.788c-11.311 10.38-32.628 15.5-47.43 11.264l-197.26-55.855c-14.755-4.189-27.601-20.154-28.532-35.468l-0.838-14.057c-0.931-15.36 6.656-37.283 16.849-48.826l35.328-39.983h205.731c12.847 0 23.273-10.426 23.273-23.273s-10.426-23.273-23.273-23.273h-164.631l41.1-46.545h170.077c12.847 0 23.273-10.426 23.273-23.273s-10.426-23.273-23.273-23.273h-128.931l41.1-46.545h134.377c12.847 0 23.273-10.426 23.273-23.273s-10.426-23.273-23.273-23.273h-93.324l165.283-187.159c10.193-11.543 28.020-12.753 39.703-2.793l24.809 21.225c11.729 10.007 18.199 30.348 14.476 45.242zM762.508 666.438c-124.975 0-226.63-101.702-226.63-226.723 0-124.975 101.655-226.676 226.63-226.676 125.021 0 226.676 101.702 226.676 226.676 0.047 125.021-101.655 226.723-226.676 226.723zM914.618 334.15l-1.443-19.968c-30.86-36.911-75.078-62.185-125.207-68.701l-14.988 4.422-23.412-5.632c-53.713 3.537-101.516 28.625-134.796 66.839l6.097-2.979 50.176-21.69v50.129l-72.239 79.081-30.534-1.303c-1.071 8.332-1.815 16.803-1.815 25.414 0 108.311 87.878 196.189 196.143 196.189 108.358 0 196.189-87.878 196.189-196.189 0-10.1-1.024-19.968-2.467-29.649l-41.705-75.962zM773.167 406.807l-33.839-83.828 71.633-47.43 79.407 47.43-28.207 81.78zM691.153 606.348l-77.684-58.88 7.959-68.096h73.868l49.757 77.638zM859.369 601.74l-33.885-40.727 45.568-78.708 64.279-5.213-11.404 72.192z" />
<glyph unicode="&#xe60c;" glyph-name="SOCC_L13" d="M187.997 194.048v-25.321h-93.091v-46.545h93.091v-93.091h46.545v93.091h24.995c-27.927 19.503-52.177 43.846-71.54 71.866zM137.821 354.863v0.047h-42.915v-46.545h47.057c-2.513 15.174-4.143 30.627-4.143 46.499zM374.179 75.311v-46.22h46.545v41.984c-15.919 0.047-31.372 1.676-46.545 4.236zM94.906 866.909v-186.182h93.091v-139.636h-93.091v-46.545h79.965c15.732 27.648 35.933 52.317 59.671 73.169v113.012h139.636v-46.359c15.174 2.56 30.673 4.189 46.545 4.236v42.124h139.636v-78.522c16.663-9.402 32.209-20.387 46.545-32.861v111.383h139.636v-139.636h-111.29c12.521-14.336 23.645-29.882 33.14-46.545h78.15v-139.636h-41.1v-0.047c0-15.872-1.629-31.325-4.143-46.499h45.242v-139.636h-111.151c-21.318-24.436-46.592-45.242-75.031-61.254v-78.383h46.545v93.091h139.636v-93.091h186.182v837.818h-837.818zM420.399 585.728c-126.929 0-230.214-103.331-230.214-230.307s103.284-230.26 230.214-230.26c126.976 0 230.307 103.284 230.307 230.26s-103.331 230.307-230.307 230.307zM574.883 248.134l-1.443-20.294c-31.325-37.562-76.241-63.209-127.209-69.818l-15.22 4.561-23.785-5.725c-54.598 3.584-103.098 29.091-136.937 67.863l6.191-3.025 50.967-22.016v50.874l-73.402 80.337-31.046-1.303c-1.117 8.471-1.862 17.036-1.862 25.833 0 109.987 89.274 199.308 199.215 199.308 110.080 0 199.308-89.274 199.308-199.308 0-10.287-1.024-20.294-2.513-30.115l-42.263-77.172zM431.197 321.955l-34.351-85.132 72.797-48.221 80.617 48.221-28.625 83.084zM347.927 524.66l-78.941-59.811 8.052-69.167h75.078l50.548 78.895zM518.796 519.959l-34.444-41.379 46.313-79.919 65.257-5.26-11.59 73.309z" />
<glyph unicode="&#xe60d;" glyph-name="SOCC_L14" d="M0 639.255v-186.182h76.986v-139.636h-76.986v-46.545h76.986v-139.636h-76.986v-46.545h76.986v-139.636h-76.986v-5.073h449.35v703.255h-449.35zM263.168-58.927h-139.636v139.636h139.636v-139.636zM263.168 127.255h-139.636v139.636h139.636v-139.636zM263.168 313.437h-139.636v139.636h139.636v-139.636zM727.273 767.86c-126.929 0-230.214-103.331-230.214-230.307s103.284-230.26 230.214-230.26c126.976 0 230.307 103.284 230.307 230.26-0.047 126.976-103.331 230.307-230.307 230.307zM881.757 430.266l-1.443-20.294c-31.325-37.562-76.241-63.209-127.209-69.818l-15.22 4.515-23.785-5.725c-54.598 3.584-103.098 29.091-136.937 67.863l6.191-3.025 50.967-22.016v50.874l-73.402 80.337-31.046-1.303c-1.117 8.471-1.862 17.036-1.862 25.833 0 109.987 89.274 199.308 199.215 199.308 110.080 0 199.308-89.274 199.308-199.308 0-10.287-1.024-20.294-2.513-30.115l-42.263-77.126zM738.071 504.087l-34.351-85.178 72.751-48.175 80.663 48.175-28.625 83.13zM654.755 706.793l-78.895-59.811 8.052-69.167h75.078l50.502 78.848zM825.623 702.092l-34.397-41.379 46.266-79.919 65.303-5.306-11.59 73.309z" />
<glyph unicode="&#xe60e;" glyph-name="SOCC_L15" d="M107.38 578.607c0 84.247 35.654 160.209 92.393 214.063l-100.445 117.993-47.244-31.372v-322.095l82.897-102.493c-17.548 37.702-27.601 79.593-27.601 123.904zM921.786 498.409l-23.459 22.714c-11.031 10.705-31.884 15.313-46.406 10.193l-174.732-61.533c-43.427-109.149-149.923-186.601-274.385-186.601-66.653 0-128.047 22.435-177.524 59.811l101.609-125.58c0.372-3.863 1.117-7.68 2.374-10.985l73.821-191.255c5.539-14.336 22.621-25.647 37.981-25.135l14.103 0.465c15.36 0.512 36.538 10.054 47.057 21.271l36.538 38.819-18.991 204.847c-1.21 12.8 8.239 24.157 21.039 25.321s24.111-8.239 25.321-21.039l15.174-163.933 42.543 45.242-15.686 169.332c-1.164 12.8 8.239 24.157 21.039 25.321s24.111-8.192 25.321-21.039l11.916-128.419 42.543 45.242-12.381 133.818c-1.21 12.8 8.239 24.157 21.039 25.321s24.111-8.192 25.321-21.039l8.611-92.858 171.101 181.853c10.519 11.217 10.147 29.137-0.884 39.843zM401.967 808.401c-126.929 0-230.214-103.331-230.214-230.307s103.284-230.26 230.214-230.26c126.976 0 230.307 103.284 230.307 230.26s-103.331 230.307-230.307 230.307zM556.451 470.807l-1.443-20.294c-31.325-37.516-76.241-63.209-127.209-69.818l-15.22 4.515-23.785-5.725c-54.598 3.584-103.098 29.091-136.937 67.863l6.191-3.025 50.967-22.016v50.921l-73.402 80.384-30.999-1.303c-1.117 8.471-1.862 17.036-1.862 25.833 0 110.033 89.274 199.308 199.215 199.308 110.080 0 199.308-89.274 199.308-199.308 0-10.287-1.024-20.294-2.513-30.115l-42.31-77.219zM412.765 544.675l-34.351-85.178 72.797-48.175 80.617 48.175-28.625 83.084zM329.495 747.38l-78.941-59.857 8.052-69.167h75.078l50.548 78.895zM500.317 742.679l-34.397-41.425 46.266-79.919 65.303-5.26-11.59 73.309z" />
<glyph unicode="&#xe60f;" glyph-name="SOCC_L16" d="M395.171 608.256c-144.012 0-261.167-117.201-261.167-261.26s117.155-261.213 261.167-261.213c144.058 0 261.26 117.155 261.26 261.213s-117.201 261.26-261.26 261.26zM570.415 225.28l-1.629-22.993c-35.561-42.589-86.481-71.727-144.291-79.22l-17.268 5.12-26.996-6.47c-61.905 4.049-116.969 32.954-155.369 77.033l7.028-3.444 57.856-24.948v57.763l-83.27 91.136-35.188-1.536c-1.257 9.588-2.095 19.316-2.095 29.277 0 124.788 101.236 226.071 226.025 226.071 124.881 0 226.071-101.283 226.071-226.071 0-11.683-1.164-23.040-2.839-34.211l-48.035-87.505zM407.412 309.062l-38.959-96.628 82.572-54.644 91.462 54.644-32.489 94.255zM312.925 538.996l-89.507-67.817 9.123-78.476h85.178l57.297 89.46zM506.74 533.69l-39.005-46.964 52.503-90.671 74.054-6.004-13.126 83.177zM160.628 567.203c33.047 35.468 73.821 63.441 119.761 81.268l-53.295 45.615c-29.231 25.041-73.309 21.644-98.397-7.68-25.088-29.277-21.644-73.356 7.633-98.444l24.297-20.759zM302.173 656.337c30.068 9.263 61.905 14.289 94.953 14.289 178.455 0 323.677-145.222 323.677-323.77 0-42.636-8.471-83.27-23.505-120.553l134.004 142.103c8.564 8.751 12.381 23.273 16.058 35.84l77.545 265.216c11.916 40.727-11.45 83.363-52.177 95.279-40.495 11.869-83.363-11.45-95.232-52.177l-28.486-97.513-272.384 298.682c-25.972 28.486-70.144 30.534-98.63 4.561s-30.534-70.144-4.561-98.63l157.556-162.211-22.668-6.563-191.86 182.412c-28.346 26.205-72.518 24.483-98.676-3.817-26.205-28.3-24.483-72.471 3.863-98.676l80.524-74.473zM153.833 559.709c-24.436 6.796-51.526 0.791-69.911-19.084-26.159-28.253-24.483-72.378 3.77-98.583 13.591 44.032 36.492 83.828 66.141 117.667zM885.713 317.905l-280.762-281.553 104.681-100.166 280.762 281.6z" />
<glyph unicode="&#xe610;" glyph-name="SOCC_L17" d="M847.034 578.56h-204.474v204.474h-261.12v-204.474h-204.474v-261.12h204.474v-204.474h261.12v204.474h204.474z" />
<glyph unicode="&#xe611;" glyph-name="SOCC_L18" d="M924.207 866.909h-271.593l80.151-85.923-110.452-147.921 0.279-74.007 59.159 0.465 150.202 115.060 92.253-98.956zM723.27 504.925h-182.412v182.458h-232.169v-182.458h-182.412v-232.169h182.412v-200.378h232.169v200.378h182.412z" />
<glyph unicode="&#xe612;" glyph-name="SOCC_L19" d="M696.46 640.047c6.609-19.828 11.078-40.634 11.078-62.65 0-12.102-1.489-23.831-3.584-35.328l181.062-120.972v152.483l72.052-48.128 57.856 86.575-129.722 86.668c-26.252-43.241-73.356-72.425-127.628-72.425-21.923 0-42.449 5.213-61.114 13.777zM848.058 776.006c0-49.973-40.511-90.484-90.484-90.484s-90.484 40.511-90.484 90.484c0 49.973 40.511 90.484 90.484 90.484s90.484-40.511 90.484-90.484zM351.977 776.006c0-49.973-40.511-90.484-90.484-90.484s-90.484 40.511-90.484 90.484c0 49.973 40.511 90.484 90.484 90.484s90.484-40.511 90.484-90.484zM134.051 573.58v-150.947l178.781 119.482c-2.048 11.45-3.537 23.18-3.537 35.281 0 21.597 4.329 42.031 10.705 61.533-17.967-7.866-37.562-12.66-58.508-12.66-54.272 0-101.376 29.137-127.628 72.425l-129.722-86.668 57.856-86.575 72.052 48.128zM690.781 475.043c-37.516-61.812-104.82-103.471-182.365-103.471s-144.849 41.705-182.365 103.471l-185.391-123.857 82.665-123.718 103.005 68.794v-281.135h364.172v281.135l103.005-68.794 82.665 123.718-185.391 123.857zM637.719 585.495c0-71.412-57.891-129.303-129.303-129.303s-129.303 57.891-129.303 129.303c0 71.412 57.891 129.303 129.303 129.303s129.303-57.891 129.303-129.303z" />
<glyph unicode="&#xe613;" glyph-name="SOCC_L20" d="M512 743.331c-163.095 0-295.331-132.236-295.331-295.331s132.236-295.331 295.331-295.331c163.095 0 295.331 132.236 295.331 295.331s-132.236 295.331-295.331 295.331zM684.125 512.698l-196.934-106.263v275.782c0 13.684 11.078 24.809 24.809 24.809s24.809-11.124 24.809-24.809v-192.605l123.764 66.793c12.009 6.47 27.089 2.001 33.606-10.054 6.516-12.102 2.001-27.136-10.054-33.652z" />
<glyph unicode="&#xe614;" glyph-name="SOCC_L21" d="M904.657 552.122c23.226 14.476 30.115 24.483 30.115 46.918 0 67.258-189.161 133.539-422.54 133.539s-422.54-66.281-422.54-133.539c0-22.388 5.911-31.744 28.998-46.313 71.447 58.601 235.055 103.098 393.309 103.098s321.21-45.103 392.657-103.703zM330.752 488.495c69.073-12.893 99.933-11.264 181.481-11.264 84.573 0 120.553-0.186 186.601 12.148-65.396 20.061-102.307 26.81-186.833 26.81s-115.852-7.633-181.248-27.695zM170.449 527.453c19.642-7.773 42.403-14.848 67.724-21.085 72.983 28.905 168.355 52.364 274.013 52.364s201.030-23.459 274.013-52.364c25.321 6.237 48.081 13.312 67.724 21.085-70.796 49.664-219.695 83.642-341.737 83.642-123.718 0-270.941-33.978-341.737-83.642zM512.233 424.076c-175.802 0-353.233 33.513-424.401 98.164l52.503-221.37c0-57.204 98.583-106.077 237.568-125.58l-14.057 79.593c-1.35 7.68 0.465 19.316 4.096 25.879l34.723 62.836c3.631 6.516 11.869 11.869 18.339 11.869h192.465c6.47 0 14.708-5.353 18.292-11.916l33.699-61.44c3.584-6.563 5.353-18.199 3.956-25.879l-14.662-79.732c134.656 20.247 229.329 68.329 229.329 124.369l52.084 220.951c-71.494-64.419-248.506-97.745-423.936-97.745zM591.965 182.272c-1.303-10.38-9.402-18.851-18.060-18.851h-123.345c-8.611 0-16.756 8.471-18.060 18.851l-10.985 88.111c-1.303 10.38 4.701 18.851 13.359 18.851h154.764c8.611 0 14.662-8.471 13.359-18.851l-11.031-88.111z" />
<glyph unicode="&#xe615;" glyph-name="SOCC_L22" d="M695.203 319.255l-40.401 117.248-127.581 2.932-48.5-120.18 102.679-68.003zM409.693 725.411l-111.383-84.34 11.404-97.652h105.891l71.308 111.29zM759.622 540.207l-16.337 103.424-92.532 75.171-48.547-58.368 65.303-112.826zM639.488 187.904c115.945 49.664 197.446 164.864 197.446 298.729 0 179.153-145.78 324.934-324.934 324.934-179.107 0-324.841-145.78-324.841-324.934 0-133.911 81.455-249.111 197.399-298.775-62.557-13.545-103.936-36.678-103.936-63.023 0-41.751 103.61-75.636 231.424-75.636s231.424 33.839 231.424 75.636c-0.047 26.391-41.425 49.524-103.983 63.069zM300.125 302.22l8.751-4.282 71.913-31.046v71.82l-103.564 113.338-43.753-1.862c-1.536 11.962-2.607 24.064-2.607 36.445 0 155.183 125.952 281.228 281.088 281.228 155.322 0 281.181-125.999 281.181-281.228 0-14.522-1.443-28.625-3.537-42.543l-59.671-108.87-2.048-28.579c-44.218-52.969-107.613-89.181-179.479-98.537l-21.504 6.377-33.559-8.052c-77.033 5.073-145.501 41.007-193.21 95.791z" />
<glyph unicode="&#xe616;" glyph-name="SOCC_L23" d="M511.953 816.361c-203.078 0-368.314-165.283-368.314-368.407 0-203.078 165.236-368.314 368.314-368.314 203.124 0 368.407 165.236 368.407 368.314 0 203.124-165.283 368.407-368.407 368.407zM759.11 276.34l-2.327-32.442c-50.129-60.044-121.996-101.097-203.497-111.663l-24.39 7.215-38.074-9.123c-87.319 5.725-164.957 46.499-219.089 108.637l9.914-4.841 81.548-35.188v81.408l-117.434 128.512-49.617-2.141c-1.769 13.545-2.979 27.276-2.979 41.332 0 175.988 142.801 318.836 318.697 318.836 176.128 0 318.79-142.801 318.79-318.836 0-16.477-1.629-32.442-4.049-48.221l-67.491-123.485zM529.268 394.473l-55.017-136.239 116.457-77.126 129.024 77.126-45.801 132.887zM395.962 718.708l-126.231-95.651 12.893-110.685h120.087l80.849 126.185zM669.324 711.168l-55.017-66.188 74.007-127.907 104.448-8.378-18.525 117.248z" />
<glyph unicode="&#xe617;" glyph-name="SOCC_L24" d="M722.199 541.091v-67.817c0-98.676-62.976-164.911-155.555-164.911h-109.289c-92.579 0-154.019 66.281-154.019 164.911v67.817h-93.091v-67.817c0-144.337 96.861-249.437 232.727-256.652v-140.986h-139.636v-93.091h418.909v93.091h-139.636v141.172c135.215 7.913 232.727 112.733 232.727 256.512v67.77h-93.137zM501.108 354.909h20.387c76.8 0 139.636 62.836 139.636 139.636v139.636h-93.091v46.545h93.091v46.545h-93.091v46.545h93.091c0 76.8-62.836 139.636-139.636 139.636h-20.387c-76.8 0-139.636-62.836-139.636-139.636h93.091v-46.545h-93.091v-46.545h93.091v-46.545h-93.091v-139.636c0-76.8 62.836-139.636 139.636-139.636z" />
<glyph unicode="&#xe618;" glyph-name="SOCC_L25" d="M722.199 866.909v-290.63c-48.221 101.562-151.552 172.172-271.267 172.172-165.655 0-300.404-134.796-300.404-300.497 0-165.655 134.749-300.451 300.404-300.451 119.715 0 223.046 70.563 271.267 172.125v-290.537h186.182v837.818h-186.182zM707.677 408.623l-55.156-100.678-1.908-26.438c-40.867-48.966-99.514-82.479-165.935-91.089l-19.875 5.865-31.046-7.447c-71.215 4.701-134.563 37.935-178.688 88.576l8.099-3.956 66.513-28.719v66.42l-95.791 104.774-40.495-1.722c-1.396 11.124-2.42 22.295-2.42 33.792 0 143.5 116.457 260.003 259.956 260.003 143.639 0 260.003-116.503 260.003-260.003 0-13.452-1.303-26.484-3.258-39.377zM465.036 404.34l-44.823-111.151 94.953-62.883 105.193 62.883-37.329 108.404zM356.352 668.812l-102.959-78.057 10.519-90.298h97.932l65.908 102.959zM534.388 608.675l60.369-104.308 85.178-6.889-15.081 95.651-85.597 69.539z" />
<glyph unicode="&#xe619;" glyph-name="SOCC_L26" d="M908.381 820.364h-837.818v-186.182h325.213c-108.125-45.521-184.227-152.576-184.227-277.085 0-165.655 134.749-300.451 300.404-300.451 165.702 0 300.451 134.796 300.451 300.451 0 124.509-76.148 231.564-184.273 277.085h280.25v186.182zM772.003 357.097c0-13.452-1.35-26.484-3.305-39.331l-55.156-100.678-1.908-26.438c-40.867-48.966-99.514-82.479-165.935-91.089l-19.875 5.865-31.046-7.447c-71.215 4.701-134.563 37.935-178.688 88.576l8.099-3.956 66.513-28.719v66.42l-95.791 104.82-40.495-1.722c-1.443 11.031-2.42 22.249-2.42 33.699 0 143.5 116.457 260.003 259.956 260.003 143.639 0.047 260.049-116.457 260.049-260.003zM576.186 139.45l105.239 62.883-37.376 108.404-117.993 2.7-44.823-111.104zM417.373 577.955l-102.959-78.057 10.519-90.298h97.932l65.908 102.959zM740.957 406.621l-15.081 95.651-85.551 69.539-44.916-53.993 60.369-104.308z" />
<glyph unicode="&#xe61a;" glyph-name="SOCC_L27" d="M586.938 292.817c-73.961-44.684-168.355-51.526-250.508-8.564s-130.327 124.416-135.82 210.665l-200.611-21.597v-178.874l101.841 10.938-101.841-189.533v-179.852h397.498l90.065 167.61 70.982-129.908 156.113 85.271-127.721 233.844zM609.559 510.883c0-85.371-69.207-154.577-154.577-154.577s-154.577 69.207-154.577 154.577c0 85.371 69.207 154.577 154.577 154.577s154.577-69.207 154.577-154.577zM791.366 923.601c-108.032 0-195.956-87.924-195.956-196.003 0-108.032 87.878-195.956 195.956-195.956s196.003 87.924 196.003 195.956c0 108.079-87.924 196.003-196.003 196.003zM922.81 636.276l-1.21-17.222c-26.671-31.977-64.884-53.807-108.265-59.392l-12.986 3.863-20.247-4.841c-46.452 3.025-87.738 24.716-116.55 57.763l5.306-2.56 43.38-18.711v43.241l-62.464 68.329-26.391-1.117c-0.931 7.215-1.583 14.522-1.583 21.969 0 93.603 75.962 169.612 169.565 169.612 93.696 0 169.612-76.009 169.612-169.612 0-8.751-0.884-17.268-2.141-25.647l-36.026-65.676zM800.582 699.159l-29.277-72.471 61.952-41.053 68.608 41.053-24.343 70.703zM729.647 871.657l-67.119-50.921 6.842-58.88h63.907l42.961 67.165zM875.055 867.654l-29.277-35.235 39.377-68.049 55.575-4.468-9.821 62.417z" />
<glyph unicode="&#xe61b;" glyph-name="SOCC_L28" d="M748.404 602.112l-83.223-83.223 5.12-8.844 93.789-7.587zM375.575 666.671l86.156-86.156 24.716 38.586-78.615 72.006zM371.945 505.809l-74.612 74.566 8.704-74.566zM653.265 684.358l-49.431-59.439 1.024-1.769 55.482 55.482zM783.174 636.881l-31.93-31.93c29.649-45.103 47.011-99.002 47.011-156.998 0-14.801-1.443-29.137-3.631-43.334l-55.575-101.423 44.125-44.125c37.469 53.62 59.625 118.644 59.625 188.881s-22.156 135.308-59.625 188.928zM636.975 240.78l-123.764 123.764-35.095-86.993 104.541-69.213zM668.16 209.594c-35.281-23.087-75.264-39.517-119.063-45.196l-21.876 6.47-34.164-8.192c-50.735 3.351-97.699 19.968-137.775 46.313l-32.163-32.163c53.62-37.469 118.644-59.625 188.881-59.625s135.308 22.156 188.928 59.625l-32.768 32.768zM331.031 349.277l-57.996 63.488-44.591-1.908c-1.583 12.148-2.7 24.529-2.7 37.143 0 57.996 17.361 111.849 47.057 156.951l-31.977 31.93c-37.469-53.62-59.625-118.691-59.625-188.881s22.156-135.261 59.578-188.881l90.252 90.159zM355.049 687.244c45.103 29.649 98.956 47.011 156.905 47.011 57.996 0 111.895-17.408 156.998-47.057l31.93 31.93c-53.62 37.469-118.691 59.625-188.928 59.625s-135.261-22.156-188.881-59.625l31.977-31.884zM867.7 768.605l-35.095 35.095-320.605-320.605-320.605 320.605-35.095-35.095 320.605-320.605-320.605-320.605 35.095-35.095 320.605 320.605 320.605-320.605 35.095 35.095-320.605 320.605z" />
<glyph unicode="&#xe61c;" glyph-name="SOCC_L29" d="M586.938 152.529c-73.961-44.684-168.355-51.526-250.508-8.564s-130.327 124.416-135.82 210.665l-200.611-21.597v-178.921l101.841 10.938-101.841-189.487v-39.564h705.164l-118.225 216.529zM609.559 370.548c0-85.371-69.207-154.577-154.577-154.577s-154.577 69.207-154.577 154.577c0 85.371 69.207 154.577 154.577 154.577s154.577-69.207 154.577-154.577zM848.431 773.818h129.024v186.182h-930.909v-186.182h687.756c-80.105-24.623-138.845-98.444-138.845-186.508 0-108.032 87.878-195.956 195.956-195.956s196.003 87.924 196.003 195.956c-0.047 88.064-58.833 161.885-138.985 186.508zM922.81 495.988l-1.21-17.268c-26.671-31.977-64.884-53.807-108.265-59.392l-12.986 3.863-20.247-4.841c-46.452 3.025-87.738 24.762-116.55 57.763l5.306-2.56 43.38-18.711v43.241l-62.464 68.375-26.391-1.117c-0.931 7.215-1.583 14.522-1.583 21.969 0 93.603 75.962 169.612 169.565 169.612 93.696 0 169.612-76.009 169.612-169.612 0-8.751-0.884-17.268-2.141-25.647l-36.026-65.676zM800.582 558.825l-29.277-72.471 61.952-41.007 68.608 41.007-24.343 70.703zM729.647 731.322l-67.119-50.874 6.842-58.88h63.907l42.961 67.119zM875.055 727.319l-29.277-35.188 39.377-68.049 55.575-4.468-9.821 62.371z" />
<glyph unicode="&#xe621;" glyph-name="show_icon" d="M512 689.961c-95.457 0-173.773-76.749-173.773-170.301 0-14.551 12.626-26.839 27.474-26.839s27.474 12.288 27.474 26.839c0 63.877 53.658 116.46 118.825 116.46 14.838 0 27.474 12.38 27.474 26.921 0.010 14.633-12.636 26.921-27.474 26.921zM733.123 645.734c22.856-38.124 34.877-81.766 34.877-126.075 0-138.291-114.821-250.9-256-250.9s-256 112.609-256 250.9c0 44.308 12.032 87.951 34.888 126.075-89.139-44.81-163.441-115.374-217.784-197.734 97.761-147.896 255.488-250.9 438.897-250.9s341.135 103.004 438.897 250.9c-54.333 82.36-128.635 152.924-217.774 197.734zM1012.582 409.385c-105.185-169.738-297.718-283.945-500.582-283.945s-395.387 114.801-500.572 283.945c-6.82 11.704-11.428 24.576-11.428 38.615 0 13.957 4.608 26.911 11.428 38.625 105.185 169.144 297.718 283.935 500.572 283.935s395.397-114.79 500.572-283.935c6.82-11.715 11.428-24.668 11.428-38.625 0.010-14.039-4.598-26.911-11.418-38.615z" />
<glyph unicode="&#xe622;" glyph-name="assist_light" d="M495.473 7.68h-236.995v381.798l-143.411-93.409-115.067 168.038 258.13 168.212c52.224-83.907 145.961-140.513 253.901-140.513s201.687 56.556 253.911 140.513h-0.061l258.12-168.212-108.78-158.843c-37.663 101.294-135.209 173.455-249.62 173.455-147.036 0-266.24-119.204-266.24-266.24 0-82.35 37.386-155.955 96.113-204.8zM686.080 775.68c0-96.143-77.937-174.080-174.080-174.080s-174.080 77.937-174.080 174.080 77.937 174.080 174.080 174.080c96.143 0 174.080-77.937 174.080-174.080v0zM665.556 478.719c-146.76 0-266.199-119.46-266.199-266.281 0-146.76 119.439-266.199 266.199-266.199 146.821 0 266.281 119.439 266.281 266.199 0 146.821-119.46 266.281-266.281 266.281v0zM844.183 88.432l-1.679-23.45c-36.239-43.387-88.166-73.062-147.077-80.701l-17.623 5.212-27.525-6.595c-63.119 4.137-119.235 33.597-158.362 78.52l7.168-3.502 58.931-25.436v58.839l-84.879 92.877-35.871-1.536c-1.27 9.779-2.15 19.702-2.15 29.88 0 127.201 103.229 230.451 230.339 230.451 127.293 0 230.41-103.229 230.41-230.451 0-11.919-1.178-23.46-2.939-34.857l-48.783-89.252h0.041zM675.776 182.753l-37.806-93.266 80.026-52.797 88.678 52.797-31.478 90.993-99.42 2.273zM584.148 404.766l-86.764-65.495 8.858-75.786h82.555l55.572 86.395-60.221 54.886zM772.021 399.605l-37.806-45.312 50.872-87.583 71.782-5.745-12.718 80.282-72.131 58.358z" />
</font>
</defs>
</svg>
