<?xml version="1.0" encoding="utf-8"?>
<!-- Generator: Adobe Illustrator 22.0.1, SVG Export Plug-In . SVG Version: 6.00 Build 0)  -->
<svg version="1.1" id="Ebene_1" xmlns="http://www.w3.org/2000/svg" xmlns:xlink="http://www.w3.org/1999/xlink" x="0px" y="0px"
	 viewBox="0 0 428 63.5" style="enable-background:new 0 0 428 63.5;" xml:space="preserve">
<style type="text/css">
	.st0{fill:#FFFFFF;}
</style>
<g>
	<path class="st0" d="M0,16.4h19.3c9.2,0,17.2,0.3,17.2,13.4c0,8.7-3.6,11.9-8.7,13.1L39.3,61H28.1L17.2,43.5H9.1V61H0V16.4L0,16.4z
		 M9.2,24v11.7h8.2c7.3,0,9.9-0.8,9.9-6.3c0-4.5-1.5-5.4-9.2-5.4H9.2z"/>
	<path class="st0" d="M81.7,61.2C80.9,58,80,54.9,79,51.7H60.6c-0.9,3.2-1.8,6.4-2.6,9.5h-9.8c4.5-15,9.9-30.2,16.6-45.1h10.4
		C81.9,31,87.4,45.9,91.9,61.2H81.7z M63.2,43.9h13.5c-1.9-5.8-4.1-11.6-6.7-17.5C67.4,32.2,65.1,38.1,63.2,43.9z"/>
	<path class="st0" d="M102.6,16.1h9.4v19l17.7-19h12.2L124,34.2l19,27h-12.2l-13.5-20.3l-5.4,5.7v14.6h-9.2V16.1H102.6z"/>
	<path class="st0" d="M151.7,16.1h9.4v45.1h-9.4V16.1z"/>
	<path class="st0" d="M151.7,1.4h9.4v9.4h-9.4V1.4z"/>
	<path class="st0" d="M370.7,1.4h9.4v9.4h-9.4V1.4z"/>
	<path class="st0" d="M174.5,16.1h17.1c9.4,0,17.5,0.9,17.5,14.1c0,12.8-7.6,14.4-16.6,14.4h-8.7v16.6h-9.4L174.5,16.1L174.5,16.1z
		 M183.8,23.8v13.1h5.8c7.4,0,10-0.8,10-7.1c0-5.1-1.7-6-9.4-6H183.8z"/>
	<path class="st0" d="M243.1,16.1c8.9,0,13.7,3.2,13.7,11.7c0,6.9-3.2,8.5-5.1,9.2c5.5,2.2,6.9,6.4,6.9,11.2c0,7.4-3.3,13-15.9,13
		H221V16.1H243.1z M230.4,23.8v10h10.4c5.7,0,6.9-0.8,6.9-5.4c0-3.9-0.9-4.6-8.7-4.6C239,23.8,230.4,23.8,230.4,23.8z M230.4,41.6
		v11.9h8.3c8.5,0,10.4-0.6,10.4-5.8c0-5.4-1.7-6-8.5-6L230.4,41.6L230.4,41.6z"/>
	<path class="st0" d="M300.7,61.2c-0.8-3.2-1.7-6.3-2.7-9.5h-18.4c-0.9,3.2-1.8,6.4-2.6,9.5h-9.9c4.5-15,9.9-30.2,16.6-45.1h10.4
		c6.7,14.9,12.2,29.8,16.7,45.1H300.7z M282.3,43.9h13.5c-1.9-5.8-4.1-11.6-6.7-17.5C286.4,32.2,284.2,38.1,282.3,43.9z"/>
	<path class="st0" d="M321,16.1h9.2v17.3H348V16.1h9.4v45.1H348v-20h-17.7v19.9h-9.4L321,16.1L321,16.1z"/>
	<path class="st0" d="M370.7,16.1h9.4v45.1h-9.4V16.1z"/>
	<path class="st0" d="M400.6,47.1c0.4,4.8,1,7.3,10,7.3c4.8,0,8.2-0.8,8.2-5.3c0-2.7-1.3-4.2-5.3-5.4l-10.9-3
		c-5.4-1.4-10.4-4.1-10.4-12.3c0-6.4,3-13.2,16.8-13.2c13.2,0,17.5,6.2,17.6,14.3h-9.4c-0.5-3.9-0.6-6.3-8.7-6.3
		c-4.8,0-7.1,0.9-7.1,4.5c0,3.2,1.9,4.1,4.6,4.9l10,2.7c6.4,1.7,11.8,4.1,11.8,13.1c0,12.7-10.9,13.9-17.6,13.9
		c-14.6,0-18.7-5.8-19.3-15.2L400.6,47.1L400.6,47.1z"/>
</g>
</svg>
