<svg xmlns="http://www.w3.org/2000/svg" viewBox="0 0 21 13"><defs><style>.cls-1{fill:#77a02e;}.cls-2{fill:#c9d9ab;}</style></defs><title>p05</title><g id="Слой_2" data-name="Слой 2"><g id="Слой_1-2" data-name="Слой 1"><rect class="cls-1" width="21" height="13"/><rect class="cls-2" x="10" width="1" height="13"/><rect class="cls-2" x="7.99" y="5" width="1" height="3"/><rect class="cls-2" x="3" y="2.99" width="1" height="7.02"/><rect class="cls-2" x="11.99" y="5" width="1" height="3"/><rect class="cls-2" x="10" y="3" width="1" height="3" transform="translate(6 15) rotate(-90)"/><rect class="cls-2" x="10" y="7" width="1" height="3" transform="translate(2 19) rotate(-90)"/><rect class="cls-2" x="1.5" y="7.5" width="1" height="4" transform="translate(-7.5 11.5) rotate(-90)"/><rect class="cls-2" x="1.5" y="1.49" width="1" height="4" transform="translate(-1.49 5.49) rotate(-90)"/><rect class="cls-2" x="1" y="5.99" width="1" height="1" transform="translate(-4.99 8) rotate(-90)"/><rect class="cls-2" x="17" y="2.99" width="1" height="7.02" transform="translate(35 13) rotate(180)"/><rect class="cls-2" x="18.5" y="1.5" width="1" height="4" transform="translate(22.5 -15.5) rotate(90)"/><rect class="cls-2" x="18.5" y="7.51" width="1" height="4" transform="translate(28.51 -9.49) rotate(90)"/><rect class="cls-2" x="19" y="6" width="1" height="1" transform="translate(26 -12.99) rotate(90)"/></g></g></svg>